M48
; DRILL file {KiCad 7.0.10} date Wed Mar 13 20:36:50 2024
; FORMAT={-:-/ absolute / metric / decimal}
; #@! TF.CreationDate,2024-03-13T20:36:50-05:00
; #@! TF.GenerationSoftware,Kicad,Pcbnew,7.0.10
; #@! TF.FileFunction,Plated,1,2,PTH
FMAT,2
METRIC
; #@! TA.AperFunction,Plated,PTH,ComponentDrill
T1C0.200
; #@! TA.AperFunction,Plated,PTH,ViaDrill
T2C0.400
; #@! TA.AperFunction,Plated,PTH,ComponentDrill
T3C0.850
; #@! TA.AperFunction,Plated,PTH,ComponentDrill
T4C0.950
; #@! TA.AperFunction,Plated,PTH,ComponentDrill
T5C1.060
; #@! TA.AperFunction,Plated,PTH,ComponentDrill
T6C2.360
%
G90
G05
T1
X134.006Y-81.77
X134.006Y-83.17
X134.706Y-81.07
X134.706Y-82.47
X134.706Y-83.87
X135.406Y-81.77
X135.406Y-83.17
X136.106Y-81.07
X136.106Y-82.47
X136.106Y-83.87
X136.806Y-81.77
X136.806Y-83.17
T2
X124.968Y-86.868
X125.73Y-83.693
X125.984Y-78.74
X126.629Y-111.496
X126.858Y-90.1
X126.858Y-91.15
X127.371Y-110.754
X130.048Y-84.963
X133.35Y-101.727
X133.35Y-111.506
X134.493Y-110.236
X135.763Y-105.156
X135.763Y-115.824
X136.398Y-100.203
X136.779Y-109.728
X137.287Y-101.092
X138.43Y-100.838
X138.43Y-110.236
X139.192Y-116.713
X139.62Y-96.774
X139.62Y-101.346
X140.195Y-111.506
X140.372Y-105.066
X141.07Y-100.838
X141.351Y-109.982
X142.181Y-95.944
X142.24Y-100.965
X142.24Y-110.617
X142.367Y-94.488
X143.002Y-115.189
X143.879Y-110.097
X143.891Y-107.188
X144.891Y-107.188
X145.669Y-106.299
X146.558Y-111.633
X147.32Y-106.68
X148.463Y-111.633
T3
X113.03Y-96.012
X113.03Y-97.282
X113.03Y-98.552
T4
X115.062Y-67.882
X115.062Y-71.882
T5
X130.048Y-120.396
X130.048Y-129.667
X132.588Y-120.396
X132.588Y-129.667
X135.128Y-120.396
X135.128Y-129.667
X137.668Y-120.396
X137.668Y-129.667
X140.208Y-120.396
X140.208Y-129.667
X142.748Y-120.396
X142.748Y-129.667
X145.288Y-120.396
X145.288Y-129.667
T6
X106.934Y-104.936
X106.934Y-118.076
M30
