G04 #@! TF.GenerationSoftware,KiCad,Pcbnew,7.0.10*
G04 #@! TF.CreationDate,2024-03-13T20:36:13-05:00*
G04 #@! TF.ProjectId,445_Left_Bicep,3434355f-4c65-4667-945f-42696365702e,rev?*
G04 #@! TF.SameCoordinates,Original*
G04 #@! TF.FileFunction,Legend,Top*
G04 #@! TF.FilePolarity,Positive*
%FSLAX46Y46*%
G04 Gerber Fmt 4.6, Leading zero omitted, Abs format (unit mm)*
G04 Created by KiCad (PCBNEW 7.0.10) date 2024-03-13 20:36:13*
%MOMM*%
%LPD*%
G01*
G04 APERTURE LIST*
G04 Aperture macros list*
%AMRoundRect*
0 Rectangle with rounded corners*
0 $1 Rounding radius*
0 $2 $3 $4 $5 $6 $7 $8 $9 X,Y pos of 4 corners*
0 Add a 4 corners polygon primitive as box body*
4,1,4,$2,$3,$4,$5,$6,$7,$8,$9,$2,$3,0*
0 Add four circle primitives for the rounded corners*
1,1,$1+$1,$2,$3*
1,1,$1+$1,$4,$5*
1,1,$1+$1,$6,$7*
1,1,$1+$1,$8,$9*
0 Add four rect primitives between the rounded corners*
20,1,$1+$1,$2,$3,$4,$5,0*
20,1,$1+$1,$4,$5,$6,$7,0*
20,1,$1+$1,$6,$7,$8,$9,0*
20,1,$1+$1,$8,$9,$2,$3,0*%
G04 Aperture macros list end*
%ADD10C,0.127000*%
%ADD11C,0.200000*%
%ADD12C,0.254000*%
%ADD13C,0.100000*%
%ADD14RoundRect,0.102000X-0.750000X-0.450000X0.750000X-0.450000X0.750000X0.450000X-0.750000X0.450000X0*%
%ADD15RoundRect,0.102000X-0.450000X-0.750000X0.450000X-0.750000X0.450000X0.750000X-0.450000X0.750000X0*%
%ADD16RoundRect,0.102000X-0.450000X-0.450000X0.450000X-0.450000X0.450000X0.450000X-0.450000X0.450000X0*%
%ADD17RoundRect,0.102000X-0.795000X-0.795000X0.795000X-0.795000X0.795000X0.795000X-0.795000X0.795000X0*%
%ADD18C,1.794000*%
%ADD19RoundRect,0.102000X-0.775000X-0.300000X0.775000X-0.300000X0.775000X0.300000X-0.775000X0.300000X0*%
%ADD20RoundRect,0.102000X-0.900000X-0.600000X0.900000X-0.600000X0.900000X0.600000X-0.900000X0.600000X0*%
%ADD21RoundRect,0.056280X0.345720X-1.030720X0.345720X1.030720X-0.345720X1.030720X-0.345720X-1.030720X0*%
%ADD22C,2.000000*%
%ADD23O,2.236000X1.220000*%
%ADD24RoundRect,0.363100X-0.363100X-0.363100X0.363100X-0.363100X0.363100X0.363100X-0.363100X0.363100X0*%
%ADD25C,1.452400*%
%ADD26RoundRect,0.102000X-1.440000X0.560000X-1.440000X-0.560000X1.440000X-0.560000X1.440000X0.560000X0*%
%ADD27C,3.580000*%
%ADD28RoundRect,0.102000X-0.525000X-0.690000X0.525000X-0.690000X0.525000X0.690000X-0.525000X0.690000X0*%
%ADD29RoundRect,0.102000X-0.300000X-0.175000X0.300000X-0.175000X0.300000X0.175000X-0.300000X0.175000X0*%
%ADD30RoundRect,0.102000X0.175000X-0.300000X0.175000X0.300000X-0.175000X0.300000X-0.175000X-0.300000X0*%
%ADD31RoundRect,0.102000X0.525000X0.690000X-0.525000X0.690000X-0.525000X-0.690000X0.525000X-0.690000X0*%
%ADD32RoundRect,0.102000X-0.690000X0.505000X-0.690000X-0.505000X0.690000X-0.505000X0.690000X0.505000X0*%
G04 APERTURE END LIST*
D10*
X122838159Y-81850333D02*
X122535778Y-82062000D01*
X122838159Y-82213190D02*
X122203159Y-82213190D01*
X122203159Y-82213190D02*
X122203159Y-81971285D01*
X122203159Y-81971285D02*
X122233397Y-81910809D01*
X122233397Y-81910809D02*
X122263635Y-81880571D01*
X122263635Y-81880571D02*
X122324111Y-81850333D01*
X122324111Y-81850333D02*
X122414825Y-81850333D01*
X122414825Y-81850333D02*
X122475301Y-81880571D01*
X122475301Y-81880571D02*
X122505540Y-81910809D01*
X122505540Y-81910809D02*
X122535778Y-81971285D01*
X122535778Y-81971285D02*
X122535778Y-82213190D01*
X122838159Y-81245571D02*
X122838159Y-81608428D01*
X122838159Y-81427000D02*
X122203159Y-81427000D01*
X122203159Y-81427000D02*
X122293873Y-81487476D01*
X122293873Y-81487476D02*
X122354349Y-81547952D01*
X122354349Y-81547952D02*
X122384587Y-81608428D01*
X127906000Y-67260000D02*
X145906000Y-67260000D01*
X127906000Y-73980000D02*
X127906000Y-67260000D01*
X127906000Y-92030000D02*
X127906000Y-92760000D01*
X127906000Y-92760000D02*
X129151000Y-92760000D01*
X145906000Y-67260000D02*
X145906000Y-73980000D01*
X145906000Y-92030000D02*
X145906000Y-92760000D01*
X145906000Y-92760000D02*
X144661000Y-92760000D01*
D11*
X126806000Y-74750000D02*
G75*
G03*
X126606000Y-74750000I-100000J0D01*
G01*
X126606000Y-74750000D02*
G75*
G03*
X126806000Y-74750000I100000J0D01*
G01*
D10*
X128778000Y-132247000D02*
X128778000Y-127087000D01*
X146558000Y-127087000D02*
X128778000Y-127087000D01*
X146558000Y-127087000D02*
X146558000Y-132247000D01*
X146558000Y-132247000D02*
X128778000Y-132247000D01*
D11*
X128228000Y-129667000D02*
G75*
G03*
X128028000Y-129667000I-100000J0D01*
G01*
X128028000Y-129667000D02*
G75*
G03*
X128228000Y-129667000I100000J0D01*
G01*
D12*
X114807000Y-84868000D02*
X112594000Y-84868000D01*
X114807000Y-84868000D02*
X114807000Y-85723000D01*
X110557000Y-86101000D02*
X110557000Y-87590000D01*
X114807000Y-88868000D02*
X114807000Y-87968000D01*
X114807000Y-88868000D02*
X112460000Y-88868000D01*
D10*
X132730000Y-102915000D02*
X132730000Y-99015000D01*
X142860000Y-102915000D02*
X142860000Y-99015000D01*
D11*
X132950000Y-105110000D02*
G75*
G03*
X132750000Y-105110000I-100000J0D01*
G01*
X132750000Y-105110000D02*
G75*
G03*
X132950000Y-105110000I100000J0D01*
G01*
D10*
X111742000Y-99397999D02*
G75*
G03*
X111742000Y-95166001I1509328J2115999D01*
G01*
D11*
X113205000Y-93882000D02*
G75*
G03*
X113005000Y-93882000I-100000J0D01*
G01*
X113005000Y-93882000D02*
G75*
G03*
X113205000Y-93882000I100000J0D01*
G01*
D10*
X128778000Y-122976000D02*
X128778000Y-117816000D01*
X146558000Y-117816000D02*
X128778000Y-117816000D01*
X146558000Y-117816000D02*
X146558000Y-122976000D01*
X146558000Y-122976000D02*
X128778000Y-122976000D01*
D11*
X128228000Y-120396000D02*
G75*
G03*
X128028000Y-120396000I-100000J0D01*
G01*
X128028000Y-120396000D02*
G75*
G03*
X128228000Y-120396000I100000J0D01*
G01*
D13*
X124562000Y-69882000D02*
G75*
G03*
X105562000Y-69882000I-9500000J0D01*
G01*
X105562000Y-69882000D02*
G75*
G03*
X124562000Y-69882000I9500000J0D01*
G01*
D10*
X110654000Y-104256000D02*
X108942000Y-104256000D01*
X110654000Y-104256000D02*
X110654000Y-107126000D01*
X101934000Y-104256000D02*
X104926000Y-104256000D01*
X110654000Y-115886000D02*
X110654000Y-118756000D01*
X110654000Y-118756000D02*
X108942000Y-118756000D01*
X101934000Y-118756000D02*
X104926000Y-118756000D01*
D11*
X112634000Y-108006000D02*
G75*
G03*
X112434000Y-108006000I-100000J0D01*
G01*
X112434000Y-108006000D02*
G75*
G03*
X112634000Y-108006000I100000J0D01*
G01*
D10*
X151332500Y-109611000D02*
X151435500Y-109611000D01*
X151332500Y-110861000D02*
X151435500Y-110861000D01*
X144881000Y-110647000D02*
X145281000Y-110647000D01*
X145281000Y-108047000D02*
X144881000Y-108047000D01*
X147981000Y-108047000D02*
X147581000Y-108047000D01*
X147981000Y-110647000D02*
X147581000Y-110647000D01*
D13*
X144381000Y-108347000D02*
G75*
G03*
X144281000Y-108347000I-50000J0D01*
G01*
X144281000Y-108347000D02*
G75*
G03*
X144381000Y-108347000I50000J0D01*
G01*
D10*
X146863500Y-114036000D02*
X146760500Y-114036000D01*
X146863500Y-112786000D02*
X146760500Y-112786000D01*
X121711000Y-81668000D02*
X121711000Y-81908000D01*
X120351000Y-81668000D02*
X120351000Y-81908000D01*
X132603000Y-112770000D02*
X132603000Y-108870000D01*
X142733000Y-112770000D02*
X142733000Y-108870000D01*
D11*
X132823000Y-114965000D02*
G75*
G03*
X132623000Y-114965000I-100000J0D01*
G01*
X132623000Y-114965000D02*
G75*
G03*
X132823000Y-114965000I100000J0D01*
G01*
%LPC*%
D14*
X128156000Y-74750000D03*
X128156000Y-76020000D03*
X128156000Y-77290000D03*
X128156000Y-78560000D03*
X128156000Y-79830000D03*
X128156000Y-81100000D03*
X128156000Y-82370000D03*
X128156000Y-83640000D03*
X128156000Y-84910000D03*
X128156000Y-86180000D03*
X128156000Y-87450000D03*
X128156000Y-88720000D03*
X128156000Y-89990000D03*
X128156000Y-91260000D03*
D15*
X129921000Y-92510000D03*
X131191000Y-92510000D03*
X132461000Y-92510000D03*
X133731000Y-92510000D03*
X135001000Y-92510000D03*
X136271000Y-92510000D03*
X137541000Y-92510000D03*
X138811000Y-92510000D03*
X140081000Y-92510000D03*
X141351000Y-92510000D03*
X142621000Y-92510000D03*
X143891000Y-92510000D03*
D14*
X145656000Y-91260000D03*
X145656000Y-89990000D03*
X145656000Y-88720000D03*
X145656000Y-87450000D03*
X145656000Y-86180000D03*
X145656000Y-84910000D03*
X145656000Y-83640000D03*
X145656000Y-82370000D03*
X145656000Y-81100000D03*
X145656000Y-79830000D03*
X145656000Y-78560000D03*
X145656000Y-77290000D03*
X145656000Y-76020000D03*
X145656000Y-74750000D03*
D16*
X135406000Y-82470000D03*
X134006000Y-82470000D03*
X136806000Y-82470000D03*
X134006000Y-83870000D03*
X135406000Y-83870000D03*
X136806000Y-83870000D03*
X134006000Y-81070000D03*
X135406000Y-81070000D03*
X136806000Y-81070000D03*
D17*
X130048000Y-129667000D03*
D18*
X132588000Y-129667000D03*
X135128000Y-129667000D03*
X137668000Y-129667000D03*
X140208000Y-129667000D03*
X142748000Y-129667000D03*
X145288000Y-129667000D03*
D19*
X115132000Y-86368000D03*
X115132000Y-87368000D03*
D20*
X111257000Y-85068000D03*
X111257000Y-88668000D03*
D21*
X133350000Y-103440000D03*
X134620000Y-103440000D03*
X135890000Y-103440000D03*
X137160000Y-103440000D03*
X138430000Y-103440000D03*
X139700000Y-103440000D03*
X140970000Y-103440000D03*
X142240000Y-103440000D03*
X142240000Y-98490000D03*
X140970000Y-98490000D03*
X139700000Y-98490000D03*
X138430000Y-98490000D03*
X137160000Y-98490000D03*
X135890000Y-98490000D03*
X134620000Y-98490000D03*
X133350000Y-98490000D03*
D22*
X153670000Y-59690000D03*
D23*
X113030000Y-96012000D03*
X113030000Y-97282000D03*
X113030000Y-98552000D03*
D22*
X153670000Y-132969000D03*
D17*
X130048000Y-120396000D03*
D18*
X132588000Y-120396000D03*
X135128000Y-120396000D03*
X137668000Y-120396000D03*
X140208000Y-120396000D03*
X142748000Y-120396000D03*
X145288000Y-120396000D03*
D24*
X115062000Y-67882000D03*
D25*
X115062000Y-71882000D03*
D26*
X110514000Y-108006000D03*
X110514000Y-110506000D03*
X110514000Y-112506000D03*
X110514000Y-115006000D03*
D27*
X106934000Y-104936000D03*
X106934000Y-118076000D03*
D28*
X150494000Y-110236000D03*
X152274000Y-110236000D03*
D29*
X145271000Y-108597000D03*
X145271000Y-109097000D03*
X145271000Y-109597000D03*
X145271000Y-110097000D03*
D30*
X145931000Y-110257000D03*
X146431000Y-110257000D03*
X146931000Y-110257000D03*
D29*
X147591000Y-110097000D03*
X147591000Y-109597000D03*
X147591000Y-109097000D03*
X147591000Y-108597000D03*
D30*
X146931000Y-108437000D03*
X146431000Y-108437000D03*
X145931000Y-108437000D03*
D31*
X147702000Y-113411000D03*
X145922000Y-113411000D03*
D22*
X110109000Y-132969000D03*
X104521000Y-59690000D03*
D32*
X121031000Y-80838000D03*
X121031000Y-82738000D03*
D21*
X133223000Y-113295000D03*
X134493000Y-113295000D03*
X135763000Y-113295000D03*
X137033000Y-113295000D03*
X138303000Y-113295000D03*
X139573000Y-113295000D03*
X140843000Y-113295000D03*
X142113000Y-113295000D03*
X142113000Y-108345000D03*
X140843000Y-108345000D03*
X139573000Y-108345000D03*
X138303000Y-108345000D03*
X137033000Y-108345000D03*
X135763000Y-108345000D03*
X134493000Y-108345000D03*
X133223000Y-108345000D03*
%LPD*%
M02*
