G04 #@! TF.GenerationSoftware,KiCad,Pcbnew,7.0.10*
G04 #@! TF.CreationDate,2024-03-13T20:36:13-05:00*
G04 #@! TF.ProjectId,445_Left_Bicep,3434355f-4c65-4667-945f-42696365702e,rev?*
G04 #@! TF.SameCoordinates,Original*
G04 #@! TF.FileFunction,Copper,L1,Top*
G04 #@! TF.FilePolarity,Positive*
%FSLAX46Y46*%
G04 Gerber Fmt 4.6, Leading zero omitted, Abs format (unit mm)*
G04 Created by KiCad (PCBNEW 7.0.10) date 2024-03-13 20:36:13*
%MOMM*%
%LPD*%
G01*
G04 APERTURE LIST*
G04 Aperture macros list*
%AMRoundRect*
0 Rectangle with rounded corners*
0 $1 Rounding radius*
0 $2 $3 $4 $5 $6 $7 $8 $9 X,Y pos of 4 corners*
0 Add a 4 corners polygon primitive as box body*
4,1,4,$2,$3,$4,$5,$6,$7,$8,$9,$2,$3,0*
0 Add four circle primitives for the rounded corners*
1,1,$1+$1,$2,$3*
1,1,$1+$1,$4,$5*
1,1,$1+$1,$6,$7*
1,1,$1+$1,$8,$9*
0 Add four rect primitives between the rounded corners*
20,1,$1+$1,$2,$3,$4,$5,0*
20,1,$1+$1,$4,$5,$6,$7,0*
20,1,$1+$1,$6,$7,$8,$9,0*
20,1,$1+$1,$8,$9,$2,$3,0*%
G04 Aperture macros list end*
G04 #@! TA.AperFunction,SMDPad,CuDef*
%ADD10R,1.500000X0.900000*%
G04 #@! TD*
G04 #@! TA.AperFunction,SMDPad,CuDef*
%ADD11R,0.900000X1.500000*%
G04 #@! TD*
G04 #@! TA.AperFunction,SMDPad,CuDef*
%ADD12R,0.900000X0.900000*%
G04 #@! TD*
G04 #@! TA.AperFunction,ComponentPad*
%ADD13C,0.400000*%
G04 #@! TD*
G04 #@! TA.AperFunction,ComponentPad*
%ADD14R,1.590000X1.590000*%
G04 #@! TD*
G04 #@! TA.AperFunction,ComponentPad*
%ADD15C,1.590000*%
G04 #@! TD*
G04 #@! TA.AperFunction,SMDPad,CuDef*
%ADD16R,1.550000X0.600000*%
G04 #@! TD*
G04 #@! TA.AperFunction,SMDPad,CuDef*
%ADD17R,1.800000X1.200000*%
G04 #@! TD*
G04 #@! TA.AperFunction,SMDPad,CuDef*
%ADD18RoundRect,0.042000X0.258000X-0.943000X0.258000X0.943000X-0.258000X0.943000X-0.258000X-0.943000X0*%
G04 #@! TD*
G04 #@! TA.AperFunction,ComponentPad*
%ADD19O,2.032000X1.016000*%
G04 #@! TD*
G04 #@! TA.AperFunction,ComponentPad*
%ADD20RoundRect,0.325000X-0.325000X-0.325000X0.325000X-0.325000X0.325000X0.325000X-0.325000X0.325000X0*%
G04 #@! TD*
G04 #@! TA.AperFunction,ComponentPad*
%ADD21C,1.300000*%
G04 #@! TD*
G04 #@! TA.AperFunction,SMDPad,CuDef*
%ADD22R,2.880000X1.120000*%
G04 #@! TD*
G04 #@! TA.AperFunction,ComponentPad*
%ADD23C,3.376000*%
G04 #@! TD*
G04 #@! TA.AperFunction,SMDPad,CuDef*
%ADD24R,1.050000X1.380000*%
G04 #@! TD*
G04 #@! TA.AperFunction,SMDPad,CuDef*
%ADD25R,0.600000X0.350000*%
G04 #@! TD*
G04 #@! TA.AperFunction,SMDPad,CuDef*
%ADD26R,0.350000X0.600000*%
G04 #@! TD*
G04 #@! TA.AperFunction,SMDPad,CuDef*
%ADD27R,1.380000X1.010000*%
G04 #@! TD*
G04 #@! TA.AperFunction,ViaPad*
%ADD28C,0.800000*%
G04 #@! TD*
G04 #@! TA.AperFunction,Conductor*
%ADD29C,0.250000*%
G04 #@! TD*
G04 #@! TA.AperFunction,Conductor*
%ADD30C,0.200000*%
G04 #@! TD*
G04 APERTURE END LIST*
D10*
X128156000Y-74750000D03*
X128156000Y-76020000D03*
X128156000Y-77290000D03*
X128156000Y-78560000D03*
X128156000Y-79830000D03*
X128156000Y-81100000D03*
X128156000Y-82370000D03*
X128156000Y-83640000D03*
X128156000Y-84910000D03*
X128156000Y-86180000D03*
X128156000Y-87450000D03*
X128156000Y-88720000D03*
X128156000Y-89990000D03*
X128156000Y-91260000D03*
D11*
X129921000Y-92510000D03*
X131191000Y-92510000D03*
X132461000Y-92510000D03*
X133731000Y-92510000D03*
X135001000Y-92510000D03*
X136271000Y-92510000D03*
X137541000Y-92510000D03*
X138811000Y-92510000D03*
X140081000Y-92510000D03*
X141351000Y-92510000D03*
X142621000Y-92510000D03*
X143891000Y-92510000D03*
D10*
X145656000Y-91260000D03*
X145656000Y-89990000D03*
X145656000Y-88720000D03*
X145656000Y-87450000D03*
X145656000Y-86180000D03*
X145656000Y-84910000D03*
X145656000Y-83640000D03*
X145656000Y-82370000D03*
X145656000Y-81100000D03*
X145656000Y-79830000D03*
X145656000Y-78560000D03*
X145656000Y-77290000D03*
X145656000Y-76020000D03*
X145656000Y-74750000D03*
D12*
X135406000Y-82470000D03*
X134006000Y-82470000D03*
X136806000Y-82470000D03*
X134006000Y-83870000D03*
X135406000Y-83870000D03*
X136806000Y-83870000D03*
X134006000Y-81070000D03*
X135406000Y-81070000D03*
X136806000Y-81070000D03*
D13*
X135406000Y-81770000D03*
X134006000Y-81770000D03*
X136806000Y-81770000D03*
X134006000Y-83170000D03*
X135406000Y-83170000D03*
X136806000Y-83170000D03*
X134706000Y-81070000D03*
X136106000Y-81070000D03*
X134706000Y-82470000D03*
X136106000Y-82470000D03*
X134706000Y-83870000D03*
X136106000Y-83870000D03*
D14*
X130048000Y-129667000D03*
D15*
X132588000Y-129667000D03*
X135128000Y-129667000D03*
X137668000Y-129667000D03*
X140208000Y-129667000D03*
X142748000Y-129667000D03*
X145288000Y-129667000D03*
D16*
X115132000Y-86368000D03*
X115132000Y-87368000D03*
D17*
X111257000Y-85068000D03*
X111257000Y-88668000D03*
D18*
X133350000Y-103440000D03*
X134620000Y-103440000D03*
X135890000Y-103440000D03*
X137160000Y-103440000D03*
X138430000Y-103440000D03*
X139700000Y-103440000D03*
X140970000Y-103440000D03*
X142240000Y-103440000D03*
X142240000Y-98490000D03*
X140970000Y-98490000D03*
X139700000Y-98490000D03*
X138430000Y-98490000D03*
X137160000Y-98490000D03*
X135890000Y-98490000D03*
X134620000Y-98490000D03*
X133350000Y-98490000D03*
D19*
X113030000Y-96012000D03*
X113030000Y-97282000D03*
X113030000Y-98552000D03*
D14*
X130048000Y-120396000D03*
D15*
X132588000Y-120396000D03*
X135128000Y-120396000D03*
X137668000Y-120396000D03*
X140208000Y-120396000D03*
X142748000Y-120396000D03*
X145288000Y-120396000D03*
D20*
X115062000Y-67882000D03*
D21*
X115062000Y-71882000D03*
D22*
X110514000Y-108006000D03*
X110514000Y-110506000D03*
X110514000Y-112506000D03*
X110514000Y-115006000D03*
D23*
X106934000Y-104936000D03*
X106934000Y-118076000D03*
D24*
X150494000Y-110236000D03*
X152274000Y-110236000D03*
D25*
X145271000Y-108597000D03*
X145271000Y-109097000D03*
X145271000Y-109597000D03*
X145271000Y-110097000D03*
D26*
X145931000Y-110257000D03*
X146431000Y-110257000D03*
X146931000Y-110257000D03*
D25*
X147591000Y-110097000D03*
X147591000Y-109597000D03*
X147591000Y-109097000D03*
X147591000Y-108597000D03*
D26*
X146931000Y-108437000D03*
X146431000Y-108437000D03*
X145931000Y-108437000D03*
D24*
X147702000Y-113411000D03*
X145922000Y-113411000D03*
D27*
X121031000Y-80838000D03*
X121031000Y-82738000D03*
D18*
X133223000Y-113295000D03*
X134493000Y-113295000D03*
X135763000Y-113295000D03*
X137033000Y-113295000D03*
X138303000Y-113295000D03*
X139573000Y-113295000D03*
X140843000Y-113295000D03*
X142113000Y-113295000D03*
X142113000Y-108345000D03*
X140843000Y-108345000D03*
X139573000Y-108345000D03*
X138303000Y-108345000D03*
X137033000Y-108345000D03*
X135763000Y-108345000D03*
X134493000Y-108345000D03*
X133223000Y-108345000D03*
D28*
X148463000Y-111633000D03*
X146558000Y-111633000D03*
X138430000Y-100838000D03*
X138430000Y-110236000D03*
X142240000Y-100965000D03*
X142240000Y-110617000D03*
X140195305Y-111506000D03*
X140372000Y-105066000D03*
X142181153Y-95943847D03*
X134493000Y-110236000D03*
X125984000Y-78740000D03*
X125730000Y-83693000D03*
X137287000Y-101092000D03*
X141070000Y-100838000D03*
X139620000Y-101346000D03*
X139192000Y-116713000D03*
X135763000Y-115824000D03*
X135763000Y-105156000D03*
X127371232Y-110753768D03*
X126857660Y-91150000D03*
X126857660Y-90100000D03*
X126628768Y-111496232D03*
X124968000Y-86868000D03*
X136779000Y-109728000D03*
X141351000Y-109982000D03*
X143002000Y-115189000D03*
X136398000Y-100203000D03*
X143891000Y-107188000D03*
X130048000Y-84963000D03*
X143879000Y-110097000D03*
X144891003Y-107188000D03*
X139620000Y-96774000D03*
X147320000Y-106680000D03*
X145669000Y-106299000D03*
X133350000Y-111506000D03*
X133350000Y-101727000D03*
X142367000Y-94488000D03*
D29*
X126672000Y-76020000D02*
X124206000Y-78486000D01*
X113030000Y-96012000D02*
X124968000Y-96012000D01*
X133209000Y-108345000D02*
X133223000Y-108345000D01*
X148463000Y-111633000D02*
X148463000Y-110969000D01*
X145931000Y-113402000D02*
X145922000Y-113411000D01*
X131572000Y-106694000D02*
X133223000Y-108345000D01*
X110514000Y-108006000D02*
X111149000Y-108641000D01*
X132927000Y-108641000D02*
X133223000Y-108345000D01*
X130048000Y-111506000D02*
X133209000Y-108345000D01*
X130048000Y-120396000D02*
X130048000Y-129667000D01*
X128082000Y-75946000D02*
X128156000Y-76020000D01*
X111149000Y-108641000D02*
X132927000Y-108641000D01*
X143154000Y-110643000D02*
X145922000Y-113411000D01*
X123383000Y-78486000D02*
X121031000Y-80838000D01*
X124206000Y-78486000D02*
X124206000Y-95250000D01*
X143154000Y-107664820D02*
X143154000Y-110643000D01*
X150355000Y-110097000D02*
X150494000Y-110236000D01*
X130872000Y-96012000D02*
X133350000Y-98490000D01*
X145931000Y-110257000D02*
X145931000Y-111006000D01*
X133350000Y-98490000D02*
X131572000Y-100268000D01*
X128156000Y-76020000D02*
X128156000Y-77290000D01*
X148463000Y-110969000D02*
X147591000Y-110097000D01*
X145931000Y-111006000D02*
X146558000Y-111633000D01*
X131572000Y-100268000D02*
X131572000Y-106694000D01*
X130048000Y-120396000D02*
X130048000Y-111506000D01*
X147591000Y-110097000D02*
X150355000Y-110097000D01*
X133223000Y-108345000D02*
X133223000Y-107360001D01*
X124206000Y-95250000D02*
X124968000Y-96012000D01*
X128156000Y-76020000D02*
X126672000Y-76020000D01*
X124968000Y-96012000D02*
X130872000Y-96012000D01*
X145931000Y-110257000D02*
X145931000Y-113402000D01*
X133223000Y-107360001D02*
X133548001Y-107035000D01*
X142524180Y-107035000D02*
X143154000Y-107664820D01*
X124206000Y-78486000D02*
X123383000Y-78486000D01*
X133548001Y-107035000D02*
X142524180Y-107035000D01*
X146931000Y-110562000D02*
X147701000Y-111332000D01*
X145271000Y-109597000D02*
X146681000Y-109597000D01*
X146931000Y-110257000D02*
X146931000Y-110562000D01*
X147701000Y-111332000D02*
X147701000Y-113410000D01*
X145271000Y-109097000D02*
X145271000Y-109597000D01*
X147701000Y-113410000D02*
X147702000Y-113411000D01*
X146681000Y-109597000D02*
X146931000Y-109847000D01*
X146431000Y-110257000D02*
X146931000Y-110257000D01*
X146931000Y-109847000D02*
X146931000Y-110257000D01*
X135001000Y-93510000D02*
X138430000Y-96939000D01*
X138430000Y-96939000D02*
X138430000Y-98490000D01*
X135001000Y-92510000D02*
X135001000Y-93510000D01*
X138430000Y-108472000D02*
X138303000Y-108345000D01*
X138430000Y-98490000D02*
X138430000Y-100838000D01*
X138430000Y-110236000D02*
X138430000Y-108472000D01*
X138036000Y-93585000D02*
X138797000Y-93585000D01*
X138797000Y-93585000D02*
X142240000Y-97028000D01*
X137541000Y-92510000D02*
X137541000Y-93090000D01*
X142240000Y-98490000D02*
X142240000Y-100965000D01*
X142240000Y-108472000D02*
X142113000Y-108345000D01*
X142240000Y-110617000D02*
X142240000Y-108472000D01*
X137541000Y-93090000D02*
X138036000Y-93585000D01*
X142240000Y-97028000D02*
X142240000Y-98490000D01*
X140843000Y-112153695D02*
X140843000Y-113295000D01*
X140970000Y-103440000D02*
X140970000Y-104468000D01*
X136271000Y-92510000D02*
X136271000Y-93090000D01*
X138358000Y-94035000D02*
X140345000Y-96022000D01*
X136271000Y-93090000D02*
X137216000Y-94035000D01*
X140345000Y-102815000D02*
X140970000Y-103440000D01*
X140345000Y-96022000D02*
X140345000Y-102815000D01*
X140195305Y-111506000D02*
X140843000Y-112153695D01*
X140970000Y-104468000D02*
X140372000Y-105066000D01*
X137216000Y-94035000D02*
X138358000Y-94035000D01*
X134493000Y-110236000D02*
X134958999Y-110236000D01*
X142181153Y-95943847D02*
X140081000Y-93843694D01*
X140081000Y-93843694D02*
X140081000Y-92510000D01*
X134493000Y-108345000D02*
X134493000Y-110236000D01*
X134958999Y-110236000D02*
X137033000Y-112310001D01*
X137033000Y-112310001D02*
X137033000Y-113295000D01*
X137160000Y-102988820D02*
X137160000Y-103440000D01*
X134620000Y-100448820D02*
X137160000Y-102988820D01*
X134620000Y-94399000D02*
X134620000Y-98490000D01*
X133731000Y-92510000D02*
X133731000Y-93510000D01*
X134620000Y-98490000D02*
X134620000Y-100448820D01*
X133731000Y-93510000D02*
X134620000Y-94399000D01*
X127976000Y-78740000D02*
X128156000Y-78560000D01*
X125984000Y-78740000D02*
X127976000Y-78740000D01*
X128103000Y-83693000D02*
X128156000Y-83640000D01*
X125730000Y-83693000D02*
X128103000Y-83693000D01*
X137287000Y-101092000D02*
X137160000Y-100965000D01*
X137160000Y-100965000D02*
X137160000Y-98490000D01*
X141070000Y-98590000D02*
X140970000Y-98490000D01*
X141070000Y-100838000D02*
X141070000Y-98590000D01*
X142748000Y-120396000D02*
X139192000Y-116840000D01*
X139192000Y-116840000D02*
X139192000Y-116713000D01*
X139620000Y-101346000D02*
X139700000Y-101426000D01*
X139700000Y-101426000D02*
X139700000Y-103440000D01*
X145288000Y-120396000D02*
X140716000Y-115824000D01*
X135763000Y-105156000D02*
X135763000Y-103567000D01*
X135763000Y-103567000D02*
X135890000Y-103440000D01*
X140716000Y-115824000D02*
X135763000Y-115824000D01*
D30*
X127371232Y-110753768D02*
X127371232Y-111743718D01*
X127746001Y-90850001D02*
X127157659Y-90850001D01*
X128156000Y-91260000D02*
X127746001Y-90850001D01*
X127157659Y-90850001D02*
X126857660Y-91150000D01*
X127371232Y-111743718D02*
X126608950Y-112506000D01*
X126608950Y-112506000D02*
X110514000Y-112506000D01*
X112563999Y-112055999D02*
X111887000Y-111379000D01*
X127746001Y-90399999D02*
X127157659Y-90399999D01*
X127157659Y-90399999D02*
X126857660Y-90100000D01*
X127849000Y-90297000D02*
X128156000Y-89990000D01*
X128156000Y-89990000D02*
X127746001Y-90399999D01*
X111387000Y-111379000D02*
X110514000Y-110506000D01*
X126628768Y-111496232D02*
X126069001Y-112055999D01*
X126069001Y-112055999D02*
X112563999Y-112055999D01*
X111887000Y-111379000D02*
X111387000Y-111379000D01*
D29*
X125656000Y-86180000D02*
X128156000Y-86180000D01*
X124968000Y-86868000D02*
X125656000Y-86180000D01*
X135128000Y-129413000D02*
X135001000Y-129286000D01*
X136779000Y-109728000D02*
X136779000Y-107964000D01*
X136779000Y-107964000D02*
X137033000Y-107710000D01*
X141351000Y-109982000D02*
X141351000Y-108218000D01*
X141351000Y-108218000D02*
X140843000Y-107710000D01*
X139573000Y-113644999D02*
X139573000Y-112660000D01*
X141117001Y-115189000D02*
X139573000Y-113644999D01*
X143002000Y-115189000D02*
X141117001Y-115189000D01*
X145288000Y-129540000D02*
X140335000Y-124587000D01*
X135763000Y-113644999D02*
X135763000Y-112660000D01*
X133708000Y-123167000D02*
X133708000Y-115699999D01*
X135128000Y-124587000D02*
X133708000Y-123167000D01*
X140335000Y-124587000D02*
X135128000Y-124587000D01*
X133708000Y-115699999D02*
X135763000Y-113644999D01*
X145288000Y-129667000D02*
X145288000Y-129540000D01*
X136398000Y-100203000D02*
X136398000Y-98998000D01*
X143891000Y-107188000D02*
X143891000Y-107217000D01*
X143891000Y-107217000D02*
X145271000Y-108597000D01*
X136398000Y-98998000D02*
X135890000Y-98490000D01*
X129995000Y-84910000D02*
X130048000Y-84963000D01*
X128156000Y-84910000D02*
X129995000Y-84910000D01*
X143879000Y-110097000D02*
X145271000Y-110097000D01*
X139620000Y-96774000D02*
X139620000Y-98410000D01*
X139620000Y-98410000D02*
X139700000Y-98490000D01*
X145931000Y-108227997D02*
X145931000Y-108437000D01*
X144891003Y-107188000D02*
X145931000Y-108227997D01*
X145151695Y-105791000D02*
X145368695Y-105574000D01*
X146431000Y-107950000D02*
X146431000Y-108437000D01*
X146088396Y-105574000D02*
X146558000Y-106043604D01*
X139796001Y-105791000D02*
X145151695Y-105791000D01*
X146558000Y-107823000D02*
X146431000Y-107950000D01*
X146558000Y-106043604D02*
X146558000Y-107823000D01*
X138430000Y-104424999D02*
X139796001Y-105791000D01*
X145368695Y-105574000D02*
X146088396Y-105574000D01*
X138430000Y-103440000D02*
X138430000Y-104424999D01*
X146931000Y-108132000D02*
X146931000Y-108437000D01*
X136007695Y-106426000D02*
X145542000Y-106426000D01*
X147320000Y-107743000D02*
X146931000Y-108132000D01*
X147320000Y-106680000D02*
X147320000Y-107743000D01*
X134620000Y-105038305D02*
X136007695Y-106426000D01*
X134620000Y-103440000D02*
X134620000Y-105038305D01*
X145542000Y-106426000D02*
X145669000Y-106299000D01*
X133350000Y-111506000D02*
X133350000Y-113168000D01*
X141351000Y-93472000D02*
X141351000Y-92510000D01*
X142367000Y-94488000D02*
X141351000Y-93472000D01*
X133350000Y-113168000D02*
X133223000Y-113295000D01*
X133350000Y-103440000D02*
X133350000Y-101727000D01*
X112613960Y-98552000D02*
X111689000Y-97627040D01*
X113030000Y-98552000D02*
X112613960Y-98552000D01*
X112903000Y-87572000D02*
X114107000Y-86368000D01*
X112903000Y-91821000D02*
X112903000Y-87572000D01*
X111689000Y-93035000D02*
X112903000Y-91821000D01*
X114107000Y-86368000D02*
X115132000Y-86368000D01*
X111689000Y-97627040D02*
X111689000Y-93035000D01*
G04 #@! TA.AperFunction,Conductor*
G36*
X132083906Y-120575155D02*
G01*
X132150935Y-120704514D01*
X132250379Y-120810992D01*
X132374862Y-120886692D01*
X132434225Y-120903325D01*
X131866116Y-121471435D01*
X131866116Y-121471436D01*
X131938025Y-121521786D01*
X131938027Y-121521787D01*
X132143390Y-121617549D01*
X132143399Y-121617553D01*
X132362261Y-121676196D01*
X132362272Y-121676198D01*
X132587998Y-121695947D01*
X132588002Y-121695947D01*
X132813727Y-121676198D01*
X132813734Y-121676197D01*
X132926406Y-121646006D01*
X132996255Y-121647669D01*
X133054118Y-121686831D01*
X133081623Y-121751059D01*
X133082500Y-121765781D01*
X133082500Y-123084255D01*
X133080775Y-123099872D01*
X133081061Y-123099899D01*
X133080326Y-123107665D01*
X133082439Y-123174872D01*
X133082500Y-123178767D01*
X133082500Y-123206357D01*
X133083003Y-123210335D01*
X133083918Y-123221967D01*
X133085290Y-123265624D01*
X133085291Y-123265627D01*
X133090880Y-123284867D01*
X133094824Y-123303911D01*
X133097336Y-123323792D01*
X133113414Y-123364403D01*
X133117197Y-123375452D01*
X133129381Y-123417388D01*
X133139580Y-123434634D01*
X133148138Y-123452103D01*
X133155514Y-123470732D01*
X133181181Y-123506060D01*
X133187593Y-123515821D01*
X133209828Y-123553417D01*
X133209833Y-123553424D01*
X133223990Y-123567580D01*
X133236628Y-123582376D01*
X133248405Y-123598586D01*
X133248406Y-123598587D01*
X133282057Y-123626425D01*
X133290698Y-123634288D01*
X134627197Y-124970788D01*
X134637022Y-124983051D01*
X134637243Y-124982869D01*
X134642211Y-124988874D01*
X134691222Y-125034899D01*
X134694021Y-125037612D01*
X134713522Y-125057114D01*
X134713526Y-125057117D01*
X134713529Y-125057120D01*
X134716702Y-125059581D01*
X134725574Y-125067159D01*
X134757418Y-125097062D01*
X134774976Y-125106714D01*
X134791235Y-125117395D01*
X134807064Y-125129673D01*
X134847155Y-125147021D01*
X134857626Y-125152151D01*
X134880180Y-125164550D01*
X134895902Y-125173194D01*
X134895904Y-125173195D01*
X134895908Y-125173197D01*
X134915316Y-125178180D01*
X134933719Y-125184481D01*
X134952101Y-125192436D01*
X134952102Y-125192436D01*
X134952104Y-125192437D01*
X134995250Y-125199270D01*
X135006672Y-125201636D01*
X135048981Y-125212500D01*
X135069016Y-125212500D01*
X135088414Y-125214026D01*
X135108194Y-125217159D01*
X135108195Y-125217160D01*
X135108195Y-125217159D01*
X135108196Y-125217160D01*
X135151675Y-125213050D01*
X135163344Y-125212500D01*
X140024548Y-125212500D01*
X140091587Y-125232185D01*
X140112229Y-125248819D01*
X143035268Y-128171858D01*
X143068753Y-128233181D01*
X143063769Y-128302873D01*
X143021897Y-128358806D01*
X142956433Y-128383223D01*
X142936780Y-128383067D01*
X142748002Y-128366551D01*
X142747999Y-128366551D01*
X142522183Y-128386307D01*
X142522173Y-128386309D01*
X142303227Y-128444975D01*
X142303220Y-128444977D01*
X142303220Y-128444978D01*
X142302208Y-128445450D01*
X142097777Y-128540777D01*
X142097775Y-128540778D01*
X141912084Y-128670799D01*
X141751799Y-128831084D01*
X141621778Y-129016775D01*
X141621777Y-129016777D01*
X141590382Y-129084105D01*
X141544209Y-129136544D01*
X141477016Y-129155696D01*
X141410135Y-129135480D01*
X141365618Y-129084105D01*
X141334222Y-129016777D01*
X141334221Y-129016775D01*
X141334220Y-129016774D01*
X141204202Y-128831087D01*
X141043913Y-128670798D01*
X141043909Y-128670795D01*
X141043908Y-128670794D01*
X140858229Y-128540780D01*
X140858221Y-128540776D01*
X140652786Y-128444980D01*
X140652772Y-128444975D01*
X140433826Y-128386309D01*
X140433816Y-128386307D01*
X140208001Y-128366551D01*
X140207999Y-128366551D01*
X139982183Y-128386307D01*
X139982173Y-128386309D01*
X139763227Y-128444975D01*
X139763220Y-128444977D01*
X139763220Y-128444978D01*
X139762208Y-128445450D01*
X139557777Y-128540777D01*
X139557775Y-128540778D01*
X139372084Y-128670799D01*
X139211799Y-128831084D01*
X139081778Y-129016775D01*
X139081777Y-129016777D01*
X139050382Y-129084105D01*
X139004209Y-129136544D01*
X138937016Y-129155696D01*
X138870135Y-129135480D01*
X138825618Y-129084105D01*
X138794222Y-129016777D01*
X138794221Y-129016775D01*
X138794220Y-129016774D01*
X138664202Y-128831087D01*
X138503913Y-128670798D01*
X138503909Y-128670795D01*
X138503908Y-128670794D01*
X138318229Y-128540780D01*
X138318221Y-128540776D01*
X138112786Y-128444980D01*
X138112772Y-128444975D01*
X137893826Y-128386309D01*
X137893816Y-128386307D01*
X137668001Y-128366551D01*
X137667999Y-128366551D01*
X137442183Y-128386307D01*
X137442173Y-128386309D01*
X137223227Y-128444975D01*
X137223220Y-128444977D01*
X137223220Y-128444978D01*
X137222208Y-128445450D01*
X137017777Y-128540777D01*
X137017775Y-128540778D01*
X136832084Y-128670799D01*
X136671799Y-128831084D01*
X136541778Y-129016775D01*
X136541777Y-129016777D01*
X136510382Y-129084105D01*
X136464209Y-129136544D01*
X136397016Y-129155696D01*
X136330135Y-129135480D01*
X136285618Y-129084105D01*
X136254222Y-129016777D01*
X136254221Y-129016775D01*
X136254220Y-129016774D01*
X136124202Y-128831087D01*
X135963913Y-128670798D01*
X135963909Y-128670795D01*
X135963908Y-128670794D01*
X135778229Y-128540780D01*
X135778221Y-128540776D01*
X135572786Y-128444980D01*
X135572772Y-128444975D01*
X135353826Y-128386309D01*
X135353816Y-128386307D01*
X135128001Y-128366551D01*
X135127999Y-128366551D01*
X134902183Y-128386307D01*
X134902173Y-128386309D01*
X134683227Y-128444975D01*
X134683220Y-128444977D01*
X134683220Y-128444978D01*
X134682208Y-128445450D01*
X134477777Y-128540777D01*
X134477775Y-128540778D01*
X134292084Y-128670799D01*
X134131799Y-128831084D01*
X134001779Y-129016774D01*
X133970106Y-129084697D01*
X133923933Y-129137136D01*
X133856739Y-129156287D01*
X133789858Y-129136071D01*
X133745342Y-129084696D01*
X133713787Y-129017027D01*
X133713785Y-129017023D01*
X133663435Y-128945117D01*
X133097016Y-129511535D01*
X133092094Y-129487845D01*
X133025065Y-129358486D01*
X132925621Y-129252008D01*
X132801138Y-129176308D01*
X132741772Y-129159674D01*
X133309882Y-128591564D01*
X133309881Y-128591563D01*
X133237974Y-128541213D01*
X133237972Y-128541212D01*
X133032609Y-128445450D01*
X133032600Y-128445446D01*
X132813738Y-128386803D01*
X132813727Y-128386801D01*
X132588002Y-128367053D01*
X132587998Y-128367053D01*
X132362272Y-128386801D01*
X132362261Y-128386803D01*
X132143399Y-128445446D01*
X132143390Y-128445450D01*
X131938027Y-128541212D01*
X131938025Y-128541213D01*
X131866117Y-128591563D01*
X131866117Y-128591564D01*
X132431634Y-129157080D01*
X132310031Y-129209900D01*
X132197015Y-129301846D01*
X132112997Y-129420873D01*
X132080305Y-129512858D01*
X131512563Y-128945116D01*
X131478305Y-128948114D01*
X131409805Y-128934347D01*
X131359623Y-128885731D01*
X131344242Y-128827405D01*
X131343900Y-128827423D01*
X131343854Y-128827429D01*
X131343853Y-128827426D01*
X131343676Y-128827436D01*
X131343529Y-128824702D01*
X131343499Y-128824586D01*
X131343499Y-128824129D01*
X131343498Y-128824123D01*
X131343497Y-128824116D01*
X131337091Y-128764517D01*
X131302136Y-128670799D01*
X131286797Y-128629671D01*
X131286793Y-128629664D01*
X131200547Y-128514455D01*
X131200544Y-128514452D01*
X131085335Y-128428206D01*
X131085328Y-128428202D01*
X130950482Y-128377908D01*
X130950483Y-128377908D01*
X130890883Y-128371501D01*
X130890881Y-128371500D01*
X130890873Y-128371500D01*
X130890865Y-128371500D01*
X130797500Y-128371500D01*
X130730461Y-128351815D01*
X130684706Y-128299011D01*
X130673500Y-128247500D01*
X130673500Y-121815499D01*
X130693185Y-121748460D01*
X130745989Y-121702705D01*
X130797500Y-121691499D01*
X130890871Y-121691499D01*
X130890872Y-121691499D01*
X130950483Y-121685091D01*
X131085331Y-121634796D01*
X131200546Y-121548546D01*
X131286796Y-121433331D01*
X131337091Y-121298483D01*
X131343500Y-121238873D01*
X131343499Y-121238441D01*
X131343527Y-121238347D01*
X131343678Y-121235547D01*
X131344338Y-121235582D01*
X131363166Y-121171400D01*
X131415958Y-121125631D01*
X131478308Y-121114884D01*
X131512564Y-121117881D01*
X132078982Y-120551463D01*
X132083906Y-120575155D01*
G37*
G04 #@! TD.AperFunction*
G04 #@! TA.AperFunction,Conductor*
G36*
X132753376Y-109787727D02*
G01*
X132755481Y-109788534D01*
X132835348Y-109820030D01*
X132893470Y-109827010D01*
X132922531Y-109830500D01*
X133507242Y-109830500D01*
X133574281Y-109850185D01*
X133620036Y-109902989D01*
X133629980Y-109972147D01*
X133625174Y-109992811D01*
X133616068Y-110020838D01*
X133607326Y-110047742D01*
X133587540Y-110236000D01*
X133607326Y-110424258D01*
X133616285Y-110451830D01*
X133618279Y-110521671D01*
X133582197Y-110581503D01*
X133519495Y-110612330D01*
X133472573Y-110611436D01*
X133444646Y-110605500D01*
X133255354Y-110605500D01*
X133227427Y-110611436D01*
X133070197Y-110644855D01*
X133070192Y-110644857D01*
X132897270Y-110721848D01*
X132897265Y-110721851D01*
X132744129Y-110833111D01*
X132617466Y-110973785D01*
X132522821Y-111137715D01*
X132522818Y-111137722D01*
X132464327Y-111317740D01*
X132464326Y-111317744D01*
X132444540Y-111506000D01*
X132464326Y-111694256D01*
X132464327Y-111694259D01*
X132522821Y-111874285D01*
X132535074Y-111895508D01*
X132551547Y-111963408D01*
X132528694Y-112029435D01*
X132526492Y-112032431D01*
X132487680Y-112083614D01*
X132487677Y-112083619D01*
X132432971Y-112222342D01*
X132432969Y-112222350D01*
X132422500Y-112309531D01*
X132422500Y-114280468D01*
X132432969Y-114367649D01*
X132432971Y-114367657D01*
X132487677Y-114506380D01*
X132487680Y-114506386D01*
X132516469Y-114544350D01*
X132577788Y-114625212D01*
X132696616Y-114715321D01*
X132696619Y-114715322D01*
X132835342Y-114770028D01*
X132835344Y-114770028D01*
X132835348Y-114770030D01*
X132893470Y-114777010D01*
X132922531Y-114780500D01*
X133443545Y-114780500D01*
X133510584Y-114800185D01*
X133556339Y-114852989D01*
X133566283Y-114922147D01*
X133537258Y-114985703D01*
X133531226Y-114992181D01*
X133324208Y-115199198D01*
X133311951Y-115209019D01*
X133312134Y-115209240D01*
X133306122Y-115214213D01*
X133260098Y-115263222D01*
X133257391Y-115266015D01*
X133237889Y-115285516D01*
X133237875Y-115285533D01*
X133235407Y-115288714D01*
X133227843Y-115297569D01*
X133197937Y-115329417D01*
X133197936Y-115329419D01*
X133188284Y-115346975D01*
X133177610Y-115363225D01*
X133165329Y-115379060D01*
X133165324Y-115379067D01*
X133147975Y-115419157D01*
X133142838Y-115429643D01*
X133121803Y-115467905D01*
X133116822Y-115487306D01*
X133110521Y-115505709D01*
X133102562Y-115524101D01*
X133102561Y-115524104D01*
X133095728Y-115567242D01*
X133093360Y-115578673D01*
X133082501Y-115620970D01*
X133082500Y-115620981D01*
X133082500Y-115641015D01*
X133080973Y-115660414D01*
X133077840Y-115680193D01*
X133077840Y-115680194D01*
X133081950Y-115723673D01*
X133082500Y-115735342D01*
X133082500Y-119026217D01*
X133062815Y-119093256D01*
X133010011Y-119139011D01*
X132940853Y-119148955D01*
X132926407Y-119145992D01*
X132813738Y-119115803D01*
X132813727Y-119115801D01*
X132588002Y-119096053D01*
X132587998Y-119096053D01*
X132362272Y-119115801D01*
X132362261Y-119115803D01*
X132143399Y-119174446D01*
X132143390Y-119174450D01*
X131938027Y-119270212D01*
X131938025Y-119270213D01*
X131866117Y-119320563D01*
X131866117Y-119320564D01*
X132431633Y-119886080D01*
X132310031Y-119938900D01*
X132197015Y-120030846D01*
X132112997Y-120149873D01*
X132080305Y-120241858D01*
X131512563Y-119674116D01*
X131478305Y-119677114D01*
X131409805Y-119663347D01*
X131359623Y-119614731D01*
X131344242Y-119556405D01*
X131343900Y-119556423D01*
X131343854Y-119556429D01*
X131343853Y-119556426D01*
X131343676Y-119556436D01*
X131343529Y-119553702D01*
X131343499Y-119553586D01*
X131343499Y-119553129D01*
X131343498Y-119553123D01*
X131343497Y-119553116D01*
X131337091Y-119493517D01*
X131324725Y-119460363D01*
X131286797Y-119358671D01*
X131286793Y-119358664D01*
X131200547Y-119243455D01*
X131200544Y-119243452D01*
X131085335Y-119157206D01*
X131085328Y-119157202D01*
X130950482Y-119106908D01*
X130950483Y-119106908D01*
X130890883Y-119100501D01*
X130890881Y-119100500D01*
X130890873Y-119100500D01*
X130890865Y-119100500D01*
X130797500Y-119100500D01*
X130730461Y-119080815D01*
X130684706Y-119028011D01*
X130673500Y-118976500D01*
X130673500Y-111816452D01*
X130693185Y-111749413D01*
X130709819Y-111728771D01*
X131666090Y-110772500D01*
X132622363Y-109816226D01*
X132683684Y-109782743D01*
X132753376Y-109787727D01*
G37*
G04 #@! TD.AperFunction*
G04 #@! TA.AperFunction,Conductor*
G36*
X147545458Y-110943151D02*
G01*
X147573713Y-110964303D01*
X147655766Y-111046356D01*
X147689251Y-111107679D01*
X147684267Y-111177371D01*
X147675472Y-111196037D01*
X147635821Y-111264714D01*
X147628431Y-111287459D01*
X147588993Y-111345135D01*
X147524635Y-111372333D01*
X147455789Y-111360418D01*
X147404313Y-111313174D01*
X147392569Y-111287459D01*
X147385181Y-111264722D01*
X147385180Y-111264721D01*
X147385179Y-111264716D01*
X147322443Y-111156055D01*
X147305971Y-111088156D01*
X147328824Y-111022129D01*
X147355520Y-110994789D01*
X147411721Y-110952717D01*
X147477185Y-110928300D01*
X147545458Y-110943151D01*
G37*
G04 #@! TD.AperFunction*
G04 #@! TA.AperFunction,Conductor*
G36*
X152752878Y-58537171D02*
G01*
X152819775Y-58557316D01*
X152865165Y-58610435D01*
X152874631Y-58679660D01*
X152845169Y-58743014D01*
X152841645Y-58746858D01*
X152688369Y-58907173D01*
X152564363Y-59095033D01*
X152475899Y-59302004D01*
X152475895Y-59302017D01*
X152425810Y-59521457D01*
X152425808Y-59521468D01*
X152418217Y-59690500D01*
X152415710Y-59746330D01*
X152445925Y-59969387D01*
X152445926Y-59969390D01*
X152515483Y-60183465D01*
X152622146Y-60381678D01*
X152622148Y-60381681D01*
X152762489Y-60557663D01*
X152762491Y-60557664D01*
X152762492Y-60557666D01*
X152932004Y-60705765D01*
X153125236Y-60821215D01*
X153309491Y-60890367D01*
X153335976Y-60900307D01*
X153557450Y-60940500D01*
X153557453Y-60940500D01*
X153726148Y-60940500D01*
X153726155Y-60940500D01*
X153894188Y-60925377D01*
X154025169Y-60889228D01*
X154095028Y-60890367D01*
X154153182Y-60929096D01*
X154181166Y-60993116D01*
X154182157Y-61008550D01*
X154301553Y-131691165D01*
X154281982Y-131758237D01*
X154229255Y-131804081D01*
X154160113Y-131814141D01*
X154133982Y-131807467D01*
X154004023Y-131758692D01*
X153782550Y-131718500D01*
X153782547Y-131718500D01*
X153613845Y-131718500D01*
X153575399Y-131721960D01*
X153445813Y-131733622D01*
X153445807Y-131733623D01*
X153228839Y-131793503D01*
X153228826Y-131793508D01*
X153026033Y-131891167D01*
X153026025Y-131891171D01*
X152843927Y-132023473D01*
X152843925Y-132023474D01*
X152688366Y-132186176D01*
X152564363Y-132374033D01*
X152475899Y-132581004D01*
X152475895Y-132581017D01*
X152425810Y-132800457D01*
X152425808Y-132800468D01*
X152415710Y-133025325D01*
X152415710Y-133025330D01*
X152445925Y-133248387D01*
X152445926Y-133248390D01*
X152515483Y-133462465D01*
X152551512Y-133529417D01*
X152565946Y-133597780D01*
X152541129Y-133663093D01*
X152484940Y-133704622D01*
X152441066Y-133712171D01*
X111470728Y-133298330D01*
X111403890Y-133277969D01*
X111358671Y-133224706D01*
X111349427Y-133155450D01*
X111351085Y-133146763D01*
X111353191Y-133137537D01*
X111363290Y-132912670D01*
X111333075Y-132689613D01*
X111263517Y-132475536D01*
X111156852Y-132277319D01*
X111016508Y-132101334D01*
X110846996Y-131953235D01*
X110653764Y-131837785D01*
X110535775Y-131793503D01*
X110443023Y-131758692D01*
X110221550Y-131718500D01*
X110221547Y-131718500D01*
X110052845Y-131718500D01*
X110014399Y-131721960D01*
X109884813Y-131733622D01*
X109884807Y-131733623D01*
X109667839Y-131793503D01*
X109667826Y-131793508D01*
X109465033Y-131891167D01*
X109465025Y-131891171D01*
X109282927Y-132023473D01*
X109282925Y-132023474D01*
X109127366Y-132186176D01*
X109003363Y-132374033D01*
X108914899Y-132581004D01*
X108914895Y-132581017D01*
X108864810Y-132800457D01*
X108864808Y-132800468D01*
X108854710Y-133025325D01*
X108854710Y-133025330D01*
X108868909Y-133130156D01*
X108858402Y-133199230D01*
X108812218Y-133251659D01*
X108745020Y-133270796D01*
X108744780Y-133270794D01*
X104135514Y-133224237D01*
X104068676Y-133203876D01*
X104023457Y-133150613D01*
X104012766Y-133100481D01*
X103984148Y-118076000D01*
X104740386Y-118076000D01*
X104760816Y-118374697D01*
X104760817Y-118374699D01*
X104821727Y-118667818D01*
X104821732Y-118667835D01*
X104900221Y-118888681D01*
X104921992Y-118949938D01*
X105059734Y-119215767D01*
X105232389Y-119460363D01*
X105436742Y-119679172D01*
X105668986Y-119868117D01*
X105668988Y-119868118D01*
X105668989Y-119868119D01*
X105924796Y-120023678D01*
X106071697Y-120087486D01*
X106199403Y-120142957D01*
X106487696Y-120223733D01*
X106748460Y-120259573D01*
X106784301Y-120264500D01*
X106784302Y-120264500D01*
X107083699Y-120264500D01*
X107115675Y-120260104D01*
X107380304Y-120223733D01*
X107668597Y-120142957D01*
X107915104Y-120035883D01*
X107943203Y-120023678D01*
X107943205Y-120023677D01*
X108199014Y-119868117D01*
X108431258Y-119679172D01*
X108635611Y-119460363D01*
X108808266Y-119215767D01*
X108946008Y-118949938D01*
X109046269Y-118667830D01*
X109046270Y-118667823D01*
X109046272Y-118667818D01*
X109074548Y-118531743D01*
X109107183Y-118374697D01*
X109127614Y-118076000D01*
X109107183Y-117777303D01*
X109064966Y-117574144D01*
X109046272Y-117484181D01*
X109046267Y-117484164D01*
X108946008Y-117202063D01*
X108946008Y-117202062D01*
X108808266Y-116936233D01*
X108635611Y-116691637D01*
X108431258Y-116472828D01*
X108431251Y-116472823D01*
X108431250Y-116472821D01*
X108199010Y-116283880D01*
X107943203Y-116128321D01*
X107668600Y-116009044D01*
X107668598Y-116009043D01*
X107668597Y-116009043D01*
X107540497Y-115973151D01*
X107380309Y-115928268D01*
X107380305Y-115928267D01*
X107380304Y-115928267D01*
X107232001Y-115907883D01*
X107083699Y-115887500D01*
X107083698Y-115887500D01*
X106784302Y-115887500D01*
X106784301Y-115887500D01*
X106487696Y-115928267D01*
X106487690Y-115928268D01*
X106199399Y-116009044D01*
X105924796Y-116128321D01*
X105668989Y-116283880D01*
X105436749Y-116472821D01*
X105436743Y-116472826D01*
X105436742Y-116472828D01*
X105232389Y-116691637D01*
X105209192Y-116724500D01*
X105059734Y-116936232D01*
X104921991Y-117202063D01*
X104821732Y-117484164D01*
X104821727Y-117484181D01*
X104760817Y-117777300D01*
X104760816Y-117777302D01*
X104740386Y-118076000D01*
X103984148Y-118076000D01*
X103978777Y-115256000D01*
X108574000Y-115256000D01*
X108574000Y-115613844D01*
X108580401Y-115673372D01*
X108580403Y-115673379D01*
X108630645Y-115808086D01*
X108630649Y-115808093D01*
X108716809Y-115923187D01*
X108716812Y-115923190D01*
X108831906Y-116009350D01*
X108831913Y-116009354D01*
X108966620Y-116059596D01*
X108966627Y-116059598D01*
X109026155Y-116065999D01*
X109026172Y-116066000D01*
X110264000Y-116066000D01*
X110264000Y-115256000D01*
X110764000Y-115256000D01*
X110764000Y-116066000D01*
X112001828Y-116066000D01*
X112001844Y-116065999D01*
X112061372Y-116059598D01*
X112061379Y-116059596D01*
X112196086Y-116009354D01*
X112196093Y-116009350D01*
X112311187Y-115923190D01*
X112311190Y-115923187D01*
X112397350Y-115808093D01*
X112397354Y-115808086D01*
X112447596Y-115673379D01*
X112447598Y-115673372D01*
X112453999Y-115613844D01*
X112454000Y-115613827D01*
X112454000Y-115256000D01*
X110764000Y-115256000D01*
X110264000Y-115256000D01*
X108574000Y-115256000D01*
X103978777Y-115256000D01*
X103977825Y-114756000D01*
X108574000Y-114756000D01*
X110264000Y-114756000D01*
X110264000Y-113946000D01*
X110764000Y-113946000D01*
X110764000Y-114756000D01*
X112454000Y-114756000D01*
X112454000Y-114398172D01*
X112453999Y-114398155D01*
X112447598Y-114338627D01*
X112447596Y-114338620D01*
X112397354Y-114203913D01*
X112397350Y-114203906D01*
X112311190Y-114088812D01*
X112311187Y-114088809D01*
X112196093Y-114002649D01*
X112196086Y-114002645D01*
X112061379Y-113952403D01*
X112061372Y-113952401D01*
X112001844Y-113946000D01*
X110764000Y-113946000D01*
X110264000Y-113946000D01*
X109026155Y-113946000D01*
X108966627Y-113952401D01*
X108966620Y-113952403D01*
X108831913Y-114002645D01*
X108831906Y-114002649D01*
X108716812Y-114088809D01*
X108716809Y-114088812D01*
X108630649Y-114203906D01*
X108630645Y-114203913D01*
X108580403Y-114338620D01*
X108580401Y-114338627D01*
X108574000Y-114398155D01*
X108574000Y-114756000D01*
X103977825Y-114756000D01*
X103974697Y-113113870D01*
X108573500Y-113113870D01*
X108573501Y-113113876D01*
X108579908Y-113173483D01*
X108630202Y-113308328D01*
X108630206Y-113308335D01*
X108716452Y-113423544D01*
X108716455Y-113423547D01*
X108831664Y-113509793D01*
X108831671Y-113509797D01*
X108966517Y-113560091D01*
X108966516Y-113560091D01*
X108973444Y-113560835D01*
X109026127Y-113566500D01*
X112001872Y-113566499D01*
X112061483Y-113560091D01*
X112196331Y-113509796D01*
X112311546Y-113423546D01*
X112397796Y-113308331D01*
X112442987Y-113187166D01*
X112484858Y-113131234D01*
X112550322Y-113106816D01*
X112559169Y-113106500D01*
X126561463Y-113106500D01*
X126577647Y-113107560D01*
X126608950Y-113111682D01*
X126608951Y-113111682D01*
X126661204Y-113104802D01*
X126765712Y-113091044D01*
X126911791Y-113030536D01*
X126985387Y-112974064D01*
X127037232Y-112934282D01*
X127056459Y-112909223D01*
X127067140Y-112897043D01*
X127762275Y-112201908D01*
X127774455Y-112191227D01*
X127799514Y-112172000D01*
X127895768Y-112046559D01*
X127956276Y-111900480D01*
X127964434Y-111838517D01*
X127976915Y-111743718D01*
X127975541Y-111733285D01*
X127972793Y-111712407D01*
X127971732Y-111696222D01*
X127971732Y-111480220D01*
X127991417Y-111413181D01*
X128003582Y-111397248D01*
X128014904Y-111384674D01*
X128103765Y-111285984D01*
X128198411Y-111122052D01*
X128256906Y-110942024D01*
X128276692Y-110753768D01*
X128256906Y-110565512D01*
X128198411Y-110385484D01*
X128103765Y-110221552D01*
X127977103Y-110080880D01*
X127977102Y-110080879D01*
X127823966Y-109969619D01*
X127823961Y-109969616D01*
X127651039Y-109892625D01*
X127651034Y-109892623D01*
X127505233Y-109861633D01*
X127465878Y-109853268D01*
X127276586Y-109853268D01*
X127244129Y-109860166D01*
X127091429Y-109892623D01*
X127091424Y-109892625D01*
X126918502Y-109969616D01*
X126918497Y-109969619D01*
X126765361Y-110080879D01*
X126638698Y-110221553D01*
X126544053Y-110385483D01*
X126544051Y-110385487D01*
X126493530Y-110540975D01*
X126454092Y-110598650D01*
X126401381Y-110623946D01*
X126348964Y-110635088D01*
X126348960Y-110635089D01*
X126176038Y-110712080D01*
X126176033Y-110712083D01*
X126022897Y-110823343D01*
X125896234Y-110964017D01*
X125801589Y-111127947D01*
X125801586Y-111127954D01*
X125744789Y-111302759D01*
X125743094Y-111307976D01*
X125739259Y-111344463D01*
X125712675Y-111409075D01*
X125655378Y-111449060D01*
X125615939Y-111455499D01*
X112864096Y-111455499D01*
X112797057Y-111435814D01*
X112776415Y-111419180D01*
X112490818Y-111133583D01*
X112457333Y-111072260D01*
X112454499Y-111045902D01*
X112454499Y-109898129D01*
X112454498Y-109898123D01*
X112454497Y-109898116D01*
X112448091Y-109838517D01*
X112446452Y-109834123D01*
X112397797Y-109703671D01*
X112397793Y-109703664D01*
X112311547Y-109588455D01*
X112311544Y-109588452D01*
X112196333Y-109502205D01*
X112191072Y-109499332D01*
X112141667Y-109449927D01*
X112126815Y-109381654D01*
X112151232Y-109316190D01*
X112207165Y-109274318D01*
X112250499Y-109266500D01*
X131103548Y-109266500D01*
X131170587Y-109286185D01*
X131216342Y-109338989D01*
X131226286Y-109408147D01*
X131197261Y-109471703D01*
X131191232Y-109478177D01*
X130929636Y-109739773D01*
X129664208Y-111005199D01*
X129651951Y-111015020D01*
X129652134Y-111015241D01*
X129646122Y-111020214D01*
X129600098Y-111069223D01*
X129597391Y-111072016D01*
X129577889Y-111091517D01*
X129577875Y-111091534D01*
X129575407Y-111094715D01*
X129567843Y-111103570D01*
X129537937Y-111135418D01*
X129537936Y-111135420D01*
X129528284Y-111152976D01*
X129517610Y-111169226D01*
X129505329Y-111185061D01*
X129505324Y-111185068D01*
X129487975Y-111225158D01*
X129482838Y-111235644D01*
X129461803Y-111273906D01*
X129456822Y-111293307D01*
X129450521Y-111311710D01*
X129442562Y-111330102D01*
X129442561Y-111330105D01*
X129435728Y-111373243D01*
X129433360Y-111384674D01*
X129422501Y-111426971D01*
X129422500Y-111426982D01*
X129422500Y-111447016D01*
X129420973Y-111466415D01*
X129417840Y-111486194D01*
X129417840Y-111486195D01*
X129421950Y-111529674D01*
X129422500Y-111541343D01*
X129422500Y-118976500D01*
X129402815Y-119043539D01*
X129350011Y-119089294D01*
X129298501Y-119100500D01*
X129205130Y-119100500D01*
X129205123Y-119100501D01*
X129145516Y-119106908D01*
X129010671Y-119157202D01*
X129010664Y-119157206D01*
X128895455Y-119243452D01*
X128895452Y-119243455D01*
X128809206Y-119358664D01*
X128809202Y-119358671D01*
X128758908Y-119493517D01*
X128752501Y-119553116D01*
X128752501Y-119553123D01*
X128752500Y-119553135D01*
X128752500Y-121238870D01*
X128752501Y-121238876D01*
X128758908Y-121298483D01*
X128809202Y-121433328D01*
X128809206Y-121433335D01*
X128895452Y-121548544D01*
X128895455Y-121548547D01*
X129010664Y-121634793D01*
X129010671Y-121634797D01*
X129045183Y-121647669D01*
X129145517Y-121685091D01*
X129205127Y-121691500D01*
X129298500Y-121691499D01*
X129365538Y-121711183D01*
X129411294Y-121763986D01*
X129422500Y-121815499D01*
X129422500Y-128247500D01*
X129402815Y-128314539D01*
X129350011Y-128360294D01*
X129298501Y-128371500D01*
X129205130Y-128371500D01*
X129205123Y-128371501D01*
X129145516Y-128377908D01*
X129010671Y-128428202D01*
X129010664Y-128428206D01*
X128895455Y-128514452D01*
X128895452Y-128514455D01*
X128809206Y-128629664D01*
X128809202Y-128629671D01*
X128758908Y-128764517D01*
X128752501Y-128824116D01*
X128752501Y-128824123D01*
X128752500Y-128824135D01*
X128752500Y-130509870D01*
X128752501Y-130509876D01*
X128758908Y-130569483D01*
X128809202Y-130704328D01*
X128809206Y-130704335D01*
X128895452Y-130819544D01*
X128895455Y-130819547D01*
X129010664Y-130905793D01*
X129010671Y-130905797D01*
X129145517Y-130956091D01*
X129145516Y-130956091D01*
X129152444Y-130956835D01*
X129205127Y-130962500D01*
X130890872Y-130962499D01*
X130950483Y-130956091D01*
X131085331Y-130905796D01*
X131200546Y-130819546D01*
X131286796Y-130704331D01*
X131337091Y-130569483D01*
X131343500Y-130509873D01*
X131343499Y-130509441D01*
X131343527Y-130509347D01*
X131343678Y-130506547D01*
X131344338Y-130506582D01*
X131363166Y-130442400D01*
X131415958Y-130396631D01*
X131478308Y-130385884D01*
X131512564Y-130388881D01*
X132078982Y-129822463D01*
X132083906Y-129846155D01*
X132150935Y-129975514D01*
X132250379Y-130081992D01*
X132374862Y-130157692D01*
X132434227Y-130174325D01*
X131866116Y-130742435D01*
X131866116Y-130742436D01*
X131938025Y-130792786D01*
X131938027Y-130792787D01*
X132143390Y-130888549D01*
X132143399Y-130888553D01*
X132362261Y-130947196D01*
X132362272Y-130947198D01*
X132587998Y-130966947D01*
X132588002Y-130966947D01*
X132813727Y-130947198D01*
X132813738Y-130947196D01*
X133032600Y-130888553D01*
X133032609Y-130888549D01*
X133237971Y-130792788D01*
X133309882Y-130742435D01*
X132744366Y-130176918D01*
X132865969Y-130124100D01*
X132978985Y-130032154D01*
X133063003Y-129913127D01*
X133095694Y-129821141D01*
X133663435Y-130388882D01*
X133713786Y-130316973D01*
X133745341Y-130249304D01*
X133791513Y-130196865D01*
X133858707Y-130177712D01*
X133925588Y-130197927D01*
X133970106Y-130249304D01*
X134001776Y-130317221D01*
X134001780Y-130317229D01*
X134131794Y-130502908D01*
X134131799Y-130502914D01*
X134292085Y-130663200D01*
X134292091Y-130663205D01*
X134477770Y-130793219D01*
X134477772Y-130793220D01*
X134477775Y-130793222D01*
X134601375Y-130850857D01*
X134683213Y-130889019D01*
X134683215Y-130889019D01*
X134683220Y-130889022D01*
X134902179Y-130947692D01*
X135082835Y-130963497D01*
X135127999Y-130967449D01*
X135128000Y-130967449D01*
X135128001Y-130967449D01*
X135165636Y-130964156D01*
X135353821Y-130947692D01*
X135572780Y-130889022D01*
X135778225Y-130793222D01*
X135963913Y-130663202D01*
X136124202Y-130502913D01*
X136254222Y-130317225D01*
X136285618Y-130249896D01*
X136331790Y-130197456D01*
X136398983Y-130178304D01*
X136465865Y-130198520D01*
X136510382Y-130249896D01*
X136541776Y-130317221D01*
X136541780Y-130317229D01*
X136671794Y-130502908D01*
X136671799Y-130502914D01*
X136832085Y-130663200D01*
X136832091Y-130663205D01*
X137017770Y-130793219D01*
X137017772Y-130793220D01*
X137017775Y-130793222D01*
X137141375Y-130850857D01*
X137223213Y-130889019D01*
X137223215Y-130889019D01*
X137223220Y-130889022D01*
X137442179Y-130947692D01*
X137622835Y-130963497D01*
X137667999Y-130967449D01*
X137668000Y-130967449D01*
X137668001Y-130967449D01*
X137705636Y-130964156D01*
X137893821Y-130947692D01*
X138112780Y-130889022D01*
X138318225Y-130793222D01*
X138503913Y-130663202D01*
X138664202Y-130502913D01*
X138794222Y-130317225D01*
X138825618Y-130249896D01*
X138871790Y-130197456D01*
X138938983Y-130178304D01*
X139005865Y-130198520D01*
X139050382Y-130249896D01*
X139081776Y-130317221D01*
X139081780Y-130317229D01*
X139211794Y-130502908D01*
X139211799Y-130502914D01*
X139372085Y-130663200D01*
X139372091Y-130663205D01*
X139557770Y-130793219D01*
X139557772Y-130793220D01*
X139557775Y-130793222D01*
X139681375Y-130850857D01*
X139763213Y-130889019D01*
X139763215Y-130889019D01*
X139763220Y-130889022D01*
X139982179Y-130947692D01*
X140162835Y-130963497D01*
X140207999Y-130967449D01*
X140208000Y-130967449D01*
X140208001Y-130967449D01*
X140245636Y-130964156D01*
X140433821Y-130947692D01*
X140652780Y-130889022D01*
X140858225Y-130793222D01*
X141043913Y-130663202D01*
X141204202Y-130502913D01*
X141334222Y-130317225D01*
X141365618Y-130249896D01*
X141411790Y-130197456D01*
X141478983Y-130178304D01*
X141545865Y-130198520D01*
X141590382Y-130249896D01*
X141621776Y-130317221D01*
X141621780Y-130317229D01*
X141751794Y-130502908D01*
X141751799Y-130502914D01*
X141912085Y-130663200D01*
X141912091Y-130663205D01*
X142097770Y-130793219D01*
X142097772Y-130793220D01*
X142097775Y-130793222D01*
X142221375Y-130850857D01*
X142303213Y-130889019D01*
X142303215Y-130889019D01*
X142303220Y-130889022D01*
X142522179Y-130947692D01*
X142702835Y-130963497D01*
X142747999Y-130967449D01*
X142748000Y-130967449D01*
X142748001Y-130967449D01*
X142785636Y-130964156D01*
X142973821Y-130947692D01*
X143192780Y-130889022D01*
X143398225Y-130793222D01*
X143583913Y-130663202D01*
X143744202Y-130502913D01*
X143874222Y-130317225D01*
X143905618Y-130249896D01*
X143951790Y-130197456D01*
X144018983Y-130178304D01*
X144085865Y-130198520D01*
X144130382Y-130249896D01*
X144161776Y-130317221D01*
X144161780Y-130317229D01*
X144291794Y-130502908D01*
X144291799Y-130502914D01*
X144452085Y-130663200D01*
X144452091Y-130663205D01*
X144637770Y-130793219D01*
X144637772Y-130793220D01*
X144637775Y-130793222D01*
X144761375Y-130850857D01*
X144843213Y-130889019D01*
X144843215Y-130889019D01*
X144843220Y-130889022D01*
X145062179Y-130947692D01*
X145242835Y-130963497D01*
X145287999Y-130967449D01*
X145288000Y-130967449D01*
X145288001Y-130967449D01*
X145325636Y-130964156D01*
X145513821Y-130947692D01*
X145732780Y-130889022D01*
X145938225Y-130793222D01*
X146123913Y-130663202D01*
X146284202Y-130502913D01*
X146414222Y-130317225D01*
X146510022Y-130111780D01*
X146568692Y-129892821D01*
X146588449Y-129667000D01*
X146568692Y-129441179D01*
X146510022Y-129222220D01*
X146414222Y-129016776D01*
X146284202Y-128831087D01*
X146123913Y-128670798D01*
X146123909Y-128670795D01*
X146123908Y-128670794D01*
X145938229Y-128540780D01*
X145938221Y-128540776D01*
X145732786Y-128444980D01*
X145732772Y-128444975D01*
X145513826Y-128386309D01*
X145513816Y-128386307D01*
X145288001Y-128366551D01*
X145287998Y-128366551D01*
X145079981Y-128384750D01*
X145011481Y-128370983D01*
X144981493Y-128348903D01*
X140835803Y-124203212D01*
X140825980Y-124190950D01*
X140825759Y-124191134D01*
X140820786Y-124185122D01*
X140771776Y-124139099D01*
X140768977Y-124136386D01*
X140749477Y-124116885D01*
X140749471Y-124116880D01*
X140746286Y-124114409D01*
X140737434Y-124106848D01*
X140705582Y-124076938D01*
X140705580Y-124076936D01*
X140705577Y-124076935D01*
X140688029Y-124067288D01*
X140671763Y-124056604D01*
X140655932Y-124044324D01*
X140615849Y-124026978D01*
X140605363Y-124021841D01*
X140567094Y-124000803D01*
X140567092Y-124000802D01*
X140547693Y-123995822D01*
X140529281Y-123989518D01*
X140510898Y-123981562D01*
X140510892Y-123981560D01*
X140467760Y-123974729D01*
X140456322Y-123972361D01*
X140414020Y-123961500D01*
X140414019Y-123961500D01*
X140393984Y-123961500D01*
X140374586Y-123959973D01*
X140367162Y-123958797D01*
X140354805Y-123956840D01*
X140354804Y-123956840D01*
X140311325Y-123960950D01*
X140299656Y-123961500D01*
X135438453Y-123961500D01*
X135371414Y-123941815D01*
X135350772Y-123925181D01*
X134369819Y-122944228D01*
X134336334Y-122882905D01*
X134333500Y-122856547D01*
X134333500Y-121649586D01*
X134353185Y-121582547D01*
X134405989Y-121536792D01*
X134475147Y-121526848D01*
X134509902Y-121537203D01*
X134683220Y-121618022D01*
X134902179Y-121676692D01*
X135082835Y-121692497D01*
X135127999Y-121696449D01*
X135128000Y-121696449D01*
X135128001Y-121696449D01*
X135165636Y-121693156D01*
X135353821Y-121676692D01*
X135572780Y-121618022D01*
X135778225Y-121522222D01*
X135963913Y-121392202D01*
X136124202Y-121231913D01*
X136254222Y-121046225D01*
X136285618Y-120978896D01*
X136331790Y-120926456D01*
X136398983Y-120907304D01*
X136465865Y-120927520D01*
X136510382Y-120978896D01*
X136541776Y-121046221D01*
X136541780Y-121046229D01*
X136671794Y-121231908D01*
X136671799Y-121231914D01*
X136832085Y-121392200D01*
X136832091Y-121392205D01*
X137017770Y-121522219D01*
X137017772Y-121522220D01*
X137017775Y-121522222D01*
X137141375Y-121579857D01*
X137223213Y-121618019D01*
X137223215Y-121618019D01*
X137223220Y-121618022D01*
X137442179Y-121676692D01*
X137622835Y-121692497D01*
X137667999Y-121696449D01*
X137668000Y-121696449D01*
X137668001Y-121696449D01*
X137705636Y-121693156D01*
X137893821Y-121676692D01*
X138112780Y-121618022D01*
X138318225Y-121522222D01*
X138503913Y-121392202D01*
X138664202Y-121231913D01*
X138794222Y-121046225D01*
X138825618Y-120978896D01*
X138871790Y-120926456D01*
X138938983Y-120907304D01*
X139005865Y-120927520D01*
X139050382Y-120978896D01*
X139081776Y-121046221D01*
X139081780Y-121046229D01*
X139211794Y-121231908D01*
X139211799Y-121231914D01*
X139372085Y-121392200D01*
X139372091Y-121392205D01*
X139557770Y-121522219D01*
X139557772Y-121522220D01*
X139557775Y-121522222D01*
X139681375Y-121579857D01*
X139763213Y-121618019D01*
X139763215Y-121618019D01*
X139763220Y-121618022D01*
X139982179Y-121676692D01*
X140162835Y-121692497D01*
X140207999Y-121696449D01*
X140208000Y-121696449D01*
X140208001Y-121696449D01*
X140245636Y-121693156D01*
X140433821Y-121676692D01*
X140652780Y-121618022D01*
X140858225Y-121522222D01*
X141043913Y-121392202D01*
X141204202Y-121231913D01*
X141334222Y-121046225D01*
X141365618Y-120978896D01*
X141411790Y-120926456D01*
X141478983Y-120907304D01*
X141545865Y-120927520D01*
X141590382Y-120978896D01*
X141621776Y-121046221D01*
X141621780Y-121046229D01*
X141751794Y-121231908D01*
X141751799Y-121231914D01*
X141912085Y-121392200D01*
X141912091Y-121392205D01*
X142097770Y-121522219D01*
X142097772Y-121522220D01*
X142097775Y-121522222D01*
X142221375Y-121579857D01*
X142303213Y-121618019D01*
X142303215Y-121618019D01*
X142303220Y-121618022D01*
X142522179Y-121676692D01*
X142702835Y-121692497D01*
X142747999Y-121696449D01*
X142748000Y-121696449D01*
X142748001Y-121696449D01*
X142785636Y-121693156D01*
X142973821Y-121676692D01*
X143192780Y-121618022D01*
X143398225Y-121522222D01*
X143583913Y-121392202D01*
X143744202Y-121231913D01*
X143874222Y-121046225D01*
X143905618Y-120978896D01*
X143951790Y-120926456D01*
X144018983Y-120907304D01*
X144085865Y-120927520D01*
X144130382Y-120978896D01*
X144161776Y-121046221D01*
X144161780Y-121046229D01*
X144291794Y-121231908D01*
X144291799Y-121231914D01*
X144452085Y-121392200D01*
X144452091Y-121392205D01*
X144637770Y-121522219D01*
X144637772Y-121522220D01*
X144637775Y-121522222D01*
X144761375Y-121579857D01*
X144843213Y-121618019D01*
X144843215Y-121618019D01*
X144843220Y-121618022D01*
X145062179Y-121676692D01*
X145242835Y-121692497D01*
X145287999Y-121696449D01*
X145288000Y-121696449D01*
X145288001Y-121696449D01*
X145325636Y-121693156D01*
X145513821Y-121676692D01*
X145732780Y-121618022D01*
X145938225Y-121522222D01*
X146123913Y-121392202D01*
X146284202Y-121231913D01*
X146414222Y-121046225D01*
X146510022Y-120840780D01*
X146568692Y-120621821D01*
X146588449Y-120396000D01*
X146568692Y-120170179D01*
X146510022Y-119951220D01*
X146414222Y-119745776D01*
X146284202Y-119560087D01*
X146123913Y-119399798D01*
X146123909Y-119399795D01*
X146123908Y-119399794D01*
X145938229Y-119269780D01*
X145938221Y-119269776D01*
X145732786Y-119173980D01*
X145732772Y-119173975D01*
X145513826Y-119115309D01*
X145513816Y-119115307D01*
X145288001Y-119095551D01*
X145287999Y-119095551D01*
X145062183Y-119115307D01*
X145062173Y-119115309D01*
X144997034Y-119132763D01*
X144927184Y-119131100D01*
X144877260Y-119100669D01*
X141802772Y-116026181D01*
X141769287Y-115964858D01*
X141774271Y-115895166D01*
X141816143Y-115839233D01*
X141881607Y-115814816D01*
X141890453Y-115814500D01*
X142298252Y-115814500D01*
X142365291Y-115834185D01*
X142390400Y-115855526D01*
X142396126Y-115861885D01*
X142396130Y-115861889D01*
X142549265Y-115973148D01*
X142549270Y-115973151D01*
X142722192Y-116050142D01*
X142722197Y-116050144D01*
X142907354Y-116089500D01*
X142907355Y-116089500D01*
X143096644Y-116089500D01*
X143096646Y-116089500D01*
X143281803Y-116050144D01*
X143454730Y-115973151D01*
X143607871Y-115861888D01*
X143734533Y-115721216D01*
X143829179Y-115557284D01*
X143887674Y-115377256D01*
X143907460Y-115189000D01*
X143887674Y-115000744D01*
X143833112Y-114832823D01*
X143829181Y-114820722D01*
X143829180Y-114820721D01*
X143829179Y-114820716D01*
X143734533Y-114656784D01*
X143607871Y-114516112D01*
X143607870Y-114516111D01*
X143454734Y-114404851D01*
X143454729Y-114404848D01*
X143281807Y-114327857D01*
X143281802Y-114327855D01*
X143136001Y-114296865D01*
X143096646Y-114288500D01*
X143037000Y-114288500D01*
X142969961Y-114268815D01*
X142924206Y-114216011D01*
X142913000Y-114164500D01*
X142913000Y-113545000D01*
X141987000Y-113545000D01*
X141919961Y-113525315D01*
X141874206Y-113472511D01*
X141863000Y-113421000D01*
X141863000Y-111810000D01*
X142363000Y-111810000D01*
X142363000Y-113045000D01*
X142913000Y-113045000D01*
X142913000Y-112309565D01*
X142902540Y-112222469D01*
X142902540Y-112222468D01*
X142847880Y-112083860D01*
X142757855Y-111965144D01*
X142639139Y-111875119D01*
X142500531Y-111820459D01*
X142413434Y-111810000D01*
X142363000Y-111810000D01*
X141863000Y-111810000D01*
X141812566Y-111810000D01*
X141725469Y-111820459D01*
X141725468Y-111820459D01*
X141586861Y-111875119D01*
X141575963Y-111883383D01*
X141510650Y-111908203D01*
X141442287Y-111893773D01*
X141402521Y-111854495D01*
X141400072Y-111856275D01*
X141373695Y-111819971D01*
X141369811Y-111814625D01*
X141363405Y-111804872D01*
X141341170Y-111767275D01*
X141341168Y-111767273D01*
X141341165Y-111767269D01*
X141327006Y-111753110D01*
X141314368Y-111738314D01*
X141302594Y-111722108D01*
X141290867Y-111712407D01*
X141268946Y-111694272D01*
X141260304Y-111686409D01*
X141134264Y-111560368D01*
X141100780Y-111499045D01*
X141098627Y-111485665D01*
X141080979Y-111317744D01*
X141022484Y-111137716D01*
X140961061Y-111031328D01*
X140944589Y-110963428D01*
X140967442Y-110897401D01*
X141022364Y-110854211D01*
X141091917Y-110847570D01*
X141094150Y-110848022D01*
X141256354Y-110882500D01*
X141289333Y-110882500D01*
X141356372Y-110902185D01*
X141402127Y-110954989D01*
X141407264Y-110968182D01*
X141412818Y-110985278D01*
X141412821Y-110985284D01*
X141507467Y-111149216D01*
X141619739Y-111273906D01*
X141634129Y-111289888D01*
X141787265Y-111401148D01*
X141787270Y-111401151D01*
X141960192Y-111478142D01*
X141960197Y-111478144D01*
X142145354Y-111517500D01*
X142145355Y-111517500D01*
X142334644Y-111517500D01*
X142334646Y-111517500D01*
X142519803Y-111478144D01*
X142692730Y-111401151D01*
X142800984Y-111322499D01*
X142866787Y-111299021D01*
X142934841Y-111314846D01*
X142961548Y-111335138D01*
X144860181Y-113233772D01*
X144893666Y-113295095D01*
X144896500Y-113321453D01*
X144896500Y-114148870D01*
X144896501Y-114148876D01*
X144902908Y-114208483D01*
X144953202Y-114343328D01*
X144953206Y-114343335D01*
X145039452Y-114458544D01*
X145039455Y-114458547D01*
X145154664Y-114544793D01*
X145154671Y-114544797D01*
X145289517Y-114595091D01*
X145289516Y-114595091D01*
X145296444Y-114595835D01*
X145349127Y-114601500D01*
X146494872Y-114601499D01*
X146554483Y-114595091D01*
X146689331Y-114544796D01*
X146738107Y-114508282D01*
X146803569Y-114483865D01*
X146871842Y-114498716D01*
X146886729Y-114508283D01*
X146934910Y-114544352D01*
X146934913Y-114544354D01*
X147069620Y-114594596D01*
X147069627Y-114594598D01*
X147129155Y-114600999D01*
X147129172Y-114601000D01*
X147452000Y-114601000D01*
X147452000Y-113661000D01*
X147952000Y-113661000D01*
X147952000Y-114601000D01*
X148274828Y-114601000D01*
X148274844Y-114600999D01*
X148334372Y-114594598D01*
X148334379Y-114594596D01*
X148469086Y-114544354D01*
X148469093Y-114544350D01*
X148584187Y-114458190D01*
X148584190Y-114458187D01*
X148670350Y-114343093D01*
X148670354Y-114343086D01*
X148720596Y-114208379D01*
X148720598Y-114208372D01*
X148726999Y-114148844D01*
X148727000Y-114148827D01*
X148727000Y-113661000D01*
X147952000Y-113661000D01*
X147452000Y-113661000D01*
X147452000Y-113285000D01*
X147471685Y-113217961D01*
X147524489Y-113172206D01*
X147576000Y-113161000D01*
X148727000Y-113161000D01*
X148727000Y-112673172D01*
X148726999Y-112673155D01*
X148719769Y-112605913D01*
X148721264Y-112605752D01*
X148724532Y-112544705D01*
X148765393Y-112488030D01*
X148791036Y-112472669D01*
X148791238Y-112472579D01*
X148915730Y-112417151D01*
X149068871Y-112305888D01*
X149195533Y-112165216D01*
X149290179Y-112001284D01*
X149348674Y-111821256D01*
X149368460Y-111633000D01*
X149348674Y-111444744D01*
X149290179Y-111264716D01*
X149195533Y-111100784D01*
X149129305Y-111027230D01*
X149120350Y-111017285D01*
X149090120Y-110954294D01*
X149088500Y-110934313D01*
X149088500Y-110929651D01*
X149088499Y-110929644D01*
X149087998Y-110925680D01*
X149087080Y-110914021D01*
X149085709Y-110870374D01*
X149085001Y-110865906D01*
X149093951Y-110796612D01*
X149138944Y-110743157D01*
X149205694Y-110722513D01*
X149207473Y-110722500D01*
X149344501Y-110722500D01*
X149411540Y-110742185D01*
X149457295Y-110794989D01*
X149468501Y-110846500D01*
X149468501Y-110973876D01*
X149474908Y-111033483D01*
X149525202Y-111168328D01*
X149525206Y-111168335D01*
X149611452Y-111283544D01*
X149611455Y-111283547D01*
X149726664Y-111369793D01*
X149726671Y-111369797D01*
X149861517Y-111420091D01*
X149861516Y-111420091D01*
X149868444Y-111420835D01*
X149921127Y-111426500D01*
X151066872Y-111426499D01*
X151126483Y-111420091D01*
X151261331Y-111369796D01*
X151310107Y-111333282D01*
X151375569Y-111308865D01*
X151443842Y-111323716D01*
X151458729Y-111333283D01*
X151506910Y-111369352D01*
X151506913Y-111369354D01*
X151641620Y-111419596D01*
X151641627Y-111419598D01*
X151701155Y-111425999D01*
X151701172Y-111426000D01*
X152024000Y-111426000D01*
X152024000Y-110486000D01*
X152524000Y-110486000D01*
X152524000Y-111426000D01*
X152846828Y-111426000D01*
X152846844Y-111425999D01*
X152906372Y-111419598D01*
X152906379Y-111419596D01*
X153041086Y-111369354D01*
X153041093Y-111369350D01*
X153156187Y-111283190D01*
X153156190Y-111283187D01*
X153242350Y-111168093D01*
X153242354Y-111168086D01*
X153292596Y-111033379D01*
X153292598Y-111033372D01*
X153298999Y-110973844D01*
X153299000Y-110973827D01*
X153299000Y-110486000D01*
X152524000Y-110486000D01*
X152024000Y-110486000D01*
X152024000Y-109046000D01*
X152524000Y-109046000D01*
X152524000Y-109986000D01*
X153299000Y-109986000D01*
X153299000Y-109498172D01*
X153298999Y-109498155D01*
X153292598Y-109438627D01*
X153292596Y-109438620D01*
X153242354Y-109303913D01*
X153242350Y-109303906D01*
X153156190Y-109188812D01*
X153156187Y-109188809D01*
X153041093Y-109102649D01*
X153041086Y-109102645D01*
X152906379Y-109052403D01*
X152906372Y-109052401D01*
X152846844Y-109046000D01*
X152524000Y-109046000D01*
X152024000Y-109046000D01*
X151701155Y-109046000D01*
X151641627Y-109052401D01*
X151641620Y-109052403D01*
X151506913Y-109102645D01*
X151506906Y-109102649D01*
X151458726Y-109138717D01*
X151393262Y-109163134D01*
X151324989Y-109148282D01*
X151310106Y-109138717D01*
X151261331Y-109102204D01*
X151261328Y-109102202D01*
X151126482Y-109051908D01*
X151126483Y-109051908D01*
X151066883Y-109045501D01*
X151066881Y-109045500D01*
X151066873Y-109045500D01*
X151066864Y-109045500D01*
X149921129Y-109045500D01*
X149921123Y-109045501D01*
X149861516Y-109051908D01*
X149726671Y-109102202D01*
X149726664Y-109102206D01*
X149611455Y-109188452D01*
X149611452Y-109188455D01*
X149525206Y-109303664D01*
X149525202Y-109303671D01*
X149492694Y-109390833D01*
X149450823Y-109446766D01*
X149385359Y-109471184D01*
X149376512Y-109471500D01*
X148513351Y-109471500D01*
X148446312Y-109451815D01*
X148400557Y-109399011D01*
X148390068Y-109360815D01*
X148390014Y-109360315D01*
X148390008Y-109333749D01*
X148391500Y-109319873D01*
X148391499Y-108874128D01*
X148390008Y-108860258D01*
X148390008Y-108833749D01*
X148391500Y-108819873D01*
X148391499Y-108374128D01*
X148385091Y-108314517D01*
X148375742Y-108289452D01*
X148334797Y-108179671D01*
X148334793Y-108179664D01*
X148248547Y-108064455D01*
X148248544Y-108064452D01*
X148133335Y-107978206D01*
X148133328Y-107978202D01*
X148026167Y-107938234D01*
X147970233Y-107896363D01*
X147945816Y-107830899D01*
X147945500Y-107822052D01*
X147945500Y-107801983D01*
X147947027Y-107782582D01*
X147950160Y-107762804D01*
X147946050Y-107719324D01*
X147945500Y-107707655D01*
X147945500Y-107378687D01*
X147965185Y-107311648D01*
X147977350Y-107295715D01*
X147995891Y-107275122D01*
X148052533Y-107212216D01*
X148147179Y-107048284D01*
X148205674Y-106868256D01*
X148225460Y-106680000D01*
X148205674Y-106491744D01*
X148147179Y-106311716D01*
X148052533Y-106147784D01*
X147925871Y-106007112D01*
X147925870Y-106007111D01*
X147772734Y-105895851D01*
X147772729Y-105895848D01*
X147599807Y-105818857D01*
X147599802Y-105818855D01*
X147454001Y-105787865D01*
X147414646Y-105779500D01*
X147225354Y-105779500D01*
X147218896Y-105780179D01*
X147218643Y-105777777D01*
X147159870Y-105773282D01*
X147104144Y-105731134D01*
X147103462Y-105730204D01*
X147100765Y-105726492D01*
X147084805Y-105704525D01*
X147078412Y-105694794D01*
X147056170Y-105657183D01*
X147056167Y-105657180D01*
X147056165Y-105657177D01*
X147042005Y-105643017D01*
X147029370Y-105628224D01*
X147017593Y-105612016D01*
X146983945Y-105584180D01*
X146975304Y-105576317D01*
X146589199Y-105190212D01*
X146579376Y-105177950D01*
X146579155Y-105178134D01*
X146574182Y-105172122D01*
X146525172Y-105126099D01*
X146522373Y-105123386D01*
X146502873Y-105103885D01*
X146502867Y-105103880D01*
X146499682Y-105101409D01*
X146490830Y-105093848D01*
X146458978Y-105063938D01*
X146458976Y-105063936D01*
X146458973Y-105063935D01*
X146441425Y-105054288D01*
X146425159Y-105043604D01*
X146409328Y-105031324D01*
X146369245Y-105013978D01*
X146358759Y-105008841D01*
X146320490Y-104987803D01*
X146320488Y-104987802D01*
X146301089Y-104982822D01*
X146282677Y-104976518D01*
X146264294Y-104968562D01*
X146264288Y-104968560D01*
X146221156Y-104961729D01*
X146209718Y-104959361D01*
X146167416Y-104948500D01*
X146167415Y-104948500D01*
X146147380Y-104948500D01*
X146127982Y-104946973D01*
X146120558Y-104945797D01*
X146108201Y-104943840D01*
X146108200Y-104943840D01*
X146064721Y-104947950D01*
X146053052Y-104948500D01*
X145451432Y-104948500D01*
X145435815Y-104946776D01*
X145435788Y-104947062D01*
X145428026Y-104946327D01*
X145360839Y-104948439D01*
X145356945Y-104948500D01*
X145329345Y-104948500D01*
X145325657Y-104948965D01*
X145325344Y-104949005D01*
X145313726Y-104949918D01*
X145270072Y-104951290D01*
X145270062Y-104951292D01*
X145250829Y-104956879D01*
X145231789Y-104960822D01*
X145211912Y-104963334D01*
X145211905Y-104963335D01*
X145211903Y-104963336D01*
X145211901Y-104963336D01*
X145211900Y-104963337D01*
X145171279Y-104979419D01*
X145160232Y-104983201D01*
X145118306Y-104995382D01*
X145118303Y-104995383D01*
X145101058Y-105005581D01*
X145083596Y-105014135D01*
X145064967Y-105021511D01*
X145064962Y-105021514D01*
X145029621Y-105047189D01*
X145019863Y-105053599D01*
X144982275Y-105075828D01*
X144968103Y-105090000D01*
X144953318Y-105102628D01*
X144937106Y-105114407D01*
X144932029Y-105120545D01*
X144874127Y-105159650D01*
X144836489Y-105165500D01*
X142610302Y-105165500D01*
X142543263Y-105145815D01*
X142497508Y-105093011D01*
X142487564Y-105023853D01*
X142516589Y-104960297D01*
X142575367Y-104922523D01*
X142595516Y-104918385D01*
X142627530Y-104914540D01*
X142627531Y-104914540D01*
X142766139Y-104859880D01*
X142884855Y-104769855D01*
X142974880Y-104651139D01*
X143029540Y-104512531D01*
X143029540Y-104512530D01*
X143040000Y-104425434D01*
X143040000Y-103690000D01*
X142114000Y-103690000D01*
X142046961Y-103670315D01*
X142001206Y-103617511D01*
X141990000Y-103566000D01*
X141990000Y-103314000D01*
X142009685Y-103246961D01*
X142062489Y-103201206D01*
X142114000Y-103190000D01*
X143040000Y-103190000D01*
X143040000Y-102454565D01*
X143029540Y-102367469D01*
X143029540Y-102367468D01*
X142974880Y-102228860D01*
X142884855Y-102110144D01*
X142766139Y-102020119D01*
X142766133Y-102020116D01*
X142679409Y-101985916D01*
X142624265Y-101943010D01*
X142601072Y-101877102D01*
X142617193Y-101809118D01*
X142667510Y-101760642D01*
X142674432Y-101757297D01*
X142692730Y-101749151D01*
X142845871Y-101637888D01*
X142972533Y-101497216D01*
X143067179Y-101333284D01*
X143125674Y-101153256D01*
X143145460Y-100965000D01*
X143125674Y-100776744D01*
X143067179Y-100596716D01*
X142972533Y-100432784D01*
X142935141Y-100391256D01*
X142897350Y-100349284D01*
X142867120Y-100286292D01*
X142865500Y-100266312D01*
X142865500Y-99887905D01*
X142885185Y-99820866D01*
X142890696Y-99812980D01*
X142914026Y-99782214D01*
X142975321Y-99701384D01*
X143030030Y-99562652D01*
X143040500Y-99475468D01*
X143040500Y-97504532D01*
X143030030Y-97417348D01*
X143010549Y-97367949D01*
X142975322Y-97278619D01*
X142975321Y-97278616D01*
X142892717Y-97169685D01*
X142867895Y-97104376D01*
X142867973Y-97095128D01*
X142867917Y-97095130D01*
X142865561Y-97020144D01*
X142865500Y-97016250D01*
X142865500Y-96988651D01*
X142865500Y-96988650D01*
X142864997Y-96984670D01*
X142864080Y-96973021D01*
X142863755Y-96962675D01*
X142862709Y-96929373D01*
X142857121Y-96910139D01*
X142853174Y-96891081D01*
X142850664Y-96871208D01*
X142850663Y-96871205D01*
X142834583Y-96830592D01*
X142830799Y-96819539D01*
X142818618Y-96777615D01*
X142818617Y-96777610D01*
X142808420Y-96760368D01*
X142799863Y-96742902D01*
X142792486Y-96724268D01*
X142792485Y-96724266D01*
X142789613Y-96717012D01*
X142792857Y-96715727D01*
X142781092Y-96663065D01*
X142805142Y-96597465D01*
X142812659Y-96588264D01*
X142913686Y-96476063D01*
X143008332Y-96312131D01*
X143066827Y-96132103D01*
X143086613Y-95943847D01*
X143066827Y-95755591D01*
X143008332Y-95575563D01*
X142913686Y-95411631D01*
X142892757Y-95388387D01*
X142862527Y-95325396D01*
X142871152Y-95256060D01*
X142912019Y-95205098D01*
X142972871Y-95160888D01*
X143099533Y-95020216D01*
X143194179Y-94856284D01*
X143252674Y-94676256D01*
X143272460Y-94488000D01*
X143252674Y-94299744D01*
X143194179Y-94119716D01*
X143099533Y-93955784D01*
X143095715Y-93950529D01*
X143097984Y-93948880D01*
X143073067Y-93897018D01*
X143081661Y-93827679D01*
X143126378Y-93773994D01*
X143171348Y-93757636D01*
X143170932Y-93755876D01*
X143178476Y-93754093D01*
X143178480Y-93754091D01*
X143178483Y-93754091D01*
X143212667Y-93741340D01*
X143282358Y-93736357D01*
X143299327Y-93741338D01*
X143333517Y-93754091D01*
X143393127Y-93760500D01*
X144388872Y-93760499D01*
X144448483Y-93754091D01*
X144583331Y-93703796D01*
X144698546Y-93617546D01*
X144784796Y-93502331D01*
X144835091Y-93367483D01*
X144841500Y-93307873D01*
X144841499Y-92334498D01*
X144861183Y-92267460D01*
X144913987Y-92221705D01*
X144965494Y-92210499D01*
X146453872Y-92210499D01*
X146513483Y-92204091D01*
X146648331Y-92153796D01*
X146763546Y-92067546D01*
X146849796Y-91952331D01*
X146900091Y-91817483D01*
X146906500Y-91757873D01*
X146906499Y-90762128D01*
X146900091Y-90702517D01*
X146887340Y-90668332D01*
X146882357Y-90598642D01*
X146887340Y-90581669D01*
X146900091Y-90547483D01*
X146906500Y-90487873D01*
X146906499Y-89492128D01*
X146900091Y-89432517D01*
X146887340Y-89398332D01*
X146882357Y-89328642D01*
X146887340Y-89311669D01*
X146900091Y-89277483D01*
X146906500Y-89217873D01*
X146906499Y-88222128D01*
X146900091Y-88162517D01*
X146887340Y-88128332D01*
X146882357Y-88058642D01*
X146887340Y-88041669D01*
X146900091Y-88007483D01*
X146906500Y-87947873D01*
X146906499Y-86952128D01*
X146900091Y-86892517D01*
X146887340Y-86858332D01*
X146882357Y-86788642D01*
X146887340Y-86771669D01*
X146900091Y-86737483D01*
X146906500Y-86677873D01*
X146906499Y-85682128D01*
X146900091Y-85622517D01*
X146887340Y-85588332D01*
X146882357Y-85518642D01*
X146887340Y-85501669D01*
X146900091Y-85467483D01*
X146906500Y-85407873D01*
X146906499Y-84412128D01*
X146900091Y-84352517D01*
X146887340Y-84318332D01*
X146882357Y-84248642D01*
X146887340Y-84231669D01*
X146900091Y-84197483D01*
X146906500Y-84137873D01*
X146906499Y-83142128D01*
X146900091Y-83082517D01*
X146887340Y-83048332D01*
X146882357Y-82978642D01*
X146887340Y-82961669D01*
X146900091Y-82927483D01*
X146906500Y-82867873D01*
X146906499Y-81872128D01*
X146900091Y-81812517D01*
X146887340Y-81778332D01*
X146882357Y-81708642D01*
X146887340Y-81691669D01*
X146900091Y-81657483D01*
X146906500Y-81597873D01*
X146906499Y-80602128D01*
X146900091Y-80542517D01*
X146887340Y-80508332D01*
X146882357Y-80438642D01*
X146887340Y-80421669D01*
X146900091Y-80387483D01*
X146906500Y-80327873D01*
X146906499Y-79332128D01*
X146900091Y-79272517D01*
X146887340Y-79238332D01*
X146882357Y-79168642D01*
X146887340Y-79151669D01*
X146900091Y-79117483D01*
X146906500Y-79057873D01*
X146906499Y-78062128D01*
X146900091Y-78002517D01*
X146887340Y-77968332D01*
X146882357Y-77898642D01*
X146887340Y-77881669D01*
X146900091Y-77847483D01*
X146906500Y-77787873D01*
X146906499Y-76792128D01*
X146900091Y-76732517D01*
X146887340Y-76698332D01*
X146882357Y-76628642D01*
X146887340Y-76611669D01*
X146900091Y-76577483D01*
X146906500Y-76517873D01*
X146906499Y-75522128D01*
X146900091Y-75462517D01*
X146887073Y-75427616D01*
X146882090Y-75357926D01*
X146887075Y-75340949D01*
X146899597Y-75307375D01*
X146899598Y-75307372D01*
X146905999Y-75247844D01*
X146906000Y-75247827D01*
X146906000Y-75000000D01*
X144406000Y-75000000D01*
X144406000Y-75247844D01*
X144412401Y-75307372D01*
X144412403Y-75307379D01*
X144424925Y-75340952D01*
X144429909Y-75410643D01*
X144424925Y-75427617D01*
X144411909Y-75462514D01*
X144411908Y-75462516D01*
X144408242Y-75496622D01*
X144405501Y-75522123D01*
X144405500Y-75522135D01*
X144405500Y-76517870D01*
X144405501Y-76517876D01*
X144411908Y-76577481D01*
X144424659Y-76611669D01*
X144429642Y-76681361D01*
X144424659Y-76698331D01*
X144411908Y-76732518D01*
X144405501Y-76792116D01*
X144405501Y-76792123D01*
X144405500Y-76792135D01*
X144405500Y-77787870D01*
X144405501Y-77787876D01*
X144411908Y-77847481D01*
X144424659Y-77881669D01*
X144429642Y-77951361D01*
X144424659Y-77968331D01*
X144411908Y-78002518D01*
X144409340Y-78026407D01*
X144405501Y-78062123D01*
X144405500Y-78062135D01*
X144405500Y-79057870D01*
X144405501Y-79057876D01*
X144411908Y-79117481D01*
X144424659Y-79151669D01*
X144429642Y-79221361D01*
X144424659Y-79238331D01*
X144411908Y-79272518D01*
X144405501Y-79332116D01*
X144405501Y-79332123D01*
X144405500Y-79332135D01*
X144405500Y-80327870D01*
X144405501Y-80327876D01*
X144411908Y-80387481D01*
X144424659Y-80421669D01*
X144429642Y-80491361D01*
X144424659Y-80508331D01*
X144411908Y-80542518D01*
X144405506Y-80602067D01*
X144405501Y-80602123D01*
X144405500Y-80602135D01*
X144405500Y-81597870D01*
X144405501Y-81597876D01*
X144411908Y-81657481D01*
X144424659Y-81691669D01*
X144429642Y-81761361D01*
X144424659Y-81778331D01*
X144411908Y-81812518D01*
X144405955Y-81867893D01*
X144405501Y-81872123D01*
X144405500Y-81872135D01*
X144405500Y-82867870D01*
X144405501Y-82867876D01*
X144411908Y-82927481D01*
X144424659Y-82961669D01*
X144429642Y-83031361D01*
X144424659Y-83048331D01*
X144411908Y-83082518D01*
X144409486Y-83105050D01*
X144405501Y-83142123D01*
X144405500Y-83142135D01*
X144405500Y-84137870D01*
X144405501Y-84137876D01*
X144411908Y-84197481D01*
X144424659Y-84231669D01*
X144429642Y-84301361D01*
X144424659Y-84318331D01*
X144411908Y-84352518D01*
X144407238Y-84395961D01*
X144405501Y-84412123D01*
X144405500Y-84412135D01*
X144405500Y-85407870D01*
X144405501Y-85407876D01*
X144411908Y-85467481D01*
X144424659Y-85501669D01*
X144429642Y-85571361D01*
X144424659Y-85588331D01*
X144411908Y-85622518D01*
X144408242Y-85656622D01*
X144405501Y-85682123D01*
X144405500Y-85682135D01*
X144405500Y-86677870D01*
X144405501Y-86677876D01*
X144411908Y-86737481D01*
X144424659Y-86771669D01*
X144429642Y-86841361D01*
X144424659Y-86858331D01*
X144411908Y-86892518D01*
X144409326Y-86916539D01*
X144405501Y-86952123D01*
X144405500Y-86952135D01*
X144405500Y-87947870D01*
X144405501Y-87947876D01*
X144411908Y-88007481D01*
X144424659Y-88041669D01*
X144429642Y-88111361D01*
X144424659Y-88128331D01*
X144411908Y-88162518D01*
X144411319Y-88168000D01*
X144405501Y-88222123D01*
X144405500Y-88222135D01*
X144405500Y-89217870D01*
X144405501Y-89217876D01*
X144411908Y-89277481D01*
X144424659Y-89311669D01*
X144429642Y-89381361D01*
X144424659Y-89398331D01*
X144411908Y-89432518D01*
X144405501Y-89492116D01*
X144405501Y-89492123D01*
X144405500Y-89492135D01*
X144405500Y-90487870D01*
X144405501Y-90487876D01*
X144411908Y-90547481D01*
X144424659Y-90581669D01*
X144429642Y-90651361D01*
X144424659Y-90668331D01*
X144411908Y-90702518D01*
X144405501Y-90762116D01*
X144405501Y-90762123D01*
X144405500Y-90762135D01*
X144405500Y-91135500D01*
X144385815Y-91202539D01*
X144333011Y-91248294D01*
X144281500Y-91259500D01*
X143393129Y-91259500D01*
X143393123Y-91259501D01*
X143333518Y-91265908D01*
X143299331Y-91278659D01*
X143229639Y-91283642D01*
X143212669Y-91278659D01*
X143178480Y-91265908D01*
X143178482Y-91265908D01*
X143118883Y-91259501D01*
X143118881Y-91259500D01*
X143118873Y-91259500D01*
X143118864Y-91259500D01*
X142123129Y-91259500D01*
X142123123Y-91259501D01*
X142063518Y-91265908D01*
X142029331Y-91278659D01*
X141959639Y-91283642D01*
X141942669Y-91278659D01*
X141908480Y-91265908D01*
X141908482Y-91265908D01*
X141848883Y-91259501D01*
X141848881Y-91259500D01*
X141848873Y-91259500D01*
X141848864Y-91259500D01*
X140853129Y-91259500D01*
X140853123Y-91259501D01*
X140793518Y-91265908D01*
X140759331Y-91278659D01*
X140689639Y-91283642D01*
X140672669Y-91278659D01*
X140638480Y-91265908D01*
X140638482Y-91265908D01*
X140578883Y-91259501D01*
X140578881Y-91259500D01*
X140578873Y-91259500D01*
X140578864Y-91259500D01*
X139583129Y-91259500D01*
X139583123Y-91259501D01*
X139523518Y-91265908D01*
X139489331Y-91278659D01*
X139419639Y-91283642D01*
X139402669Y-91278659D01*
X139368480Y-91265908D01*
X139368482Y-91265908D01*
X139308883Y-91259501D01*
X139308881Y-91259500D01*
X139308873Y-91259500D01*
X139308864Y-91259500D01*
X138313129Y-91259500D01*
X138313123Y-91259501D01*
X138253518Y-91265908D01*
X138219331Y-91278659D01*
X138149639Y-91283642D01*
X138132669Y-91278659D01*
X138098480Y-91265908D01*
X138098482Y-91265908D01*
X138038883Y-91259501D01*
X138038881Y-91259500D01*
X138038873Y-91259500D01*
X138038864Y-91259500D01*
X137043129Y-91259500D01*
X137043123Y-91259501D01*
X136983518Y-91265908D01*
X136949331Y-91278659D01*
X136879639Y-91283642D01*
X136862669Y-91278659D01*
X136828480Y-91265908D01*
X136828482Y-91265908D01*
X136768883Y-91259501D01*
X136768881Y-91259500D01*
X136768873Y-91259500D01*
X136768864Y-91259500D01*
X135773129Y-91259500D01*
X135773123Y-91259501D01*
X135713518Y-91265908D01*
X135679331Y-91278659D01*
X135609639Y-91283642D01*
X135592669Y-91278659D01*
X135558480Y-91265908D01*
X135558482Y-91265908D01*
X135498883Y-91259501D01*
X135498881Y-91259500D01*
X135498873Y-91259500D01*
X135498864Y-91259500D01*
X134503129Y-91259500D01*
X134503123Y-91259501D01*
X134443518Y-91265908D01*
X134409331Y-91278659D01*
X134339639Y-91283642D01*
X134322669Y-91278659D01*
X134288480Y-91265908D01*
X134288482Y-91265908D01*
X134228883Y-91259501D01*
X134228881Y-91259500D01*
X134228873Y-91259500D01*
X134228864Y-91259500D01*
X133233129Y-91259500D01*
X133233123Y-91259501D01*
X133173518Y-91265908D01*
X133139331Y-91278659D01*
X133069639Y-91283642D01*
X133052669Y-91278659D01*
X133018480Y-91265908D01*
X133018482Y-91265908D01*
X132958883Y-91259501D01*
X132958881Y-91259500D01*
X132958873Y-91259500D01*
X132958864Y-91259500D01*
X131963129Y-91259500D01*
X131963123Y-91259501D01*
X131903518Y-91265908D01*
X131869331Y-91278659D01*
X131799639Y-91283642D01*
X131782669Y-91278659D01*
X131748480Y-91265908D01*
X131748482Y-91265908D01*
X131688883Y-91259501D01*
X131688881Y-91259500D01*
X131688873Y-91259500D01*
X131688864Y-91259500D01*
X130693129Y-91259500D01*
X130693123Y-91259501D01*
X130633518Y-91265908D01*
X130599331Y-91278659D01*
X130529639Y-91283642D01*
X130512669Y-91278659D01*
X130478480Y-91265908D01*
X130478482Y-91265908D01*
X130418883Y-91259501D01*
X130418881Y-91259500D01*
X130418873Y-91259500D01*
X130418865Y-91259500D01*
X129530499Y-91259500D01*
X129463460Y-91239815D01*
X129417705Y-91187011D01*
X129406499Y-91135500D01*
X129406499Y-90762129D01*
X129406498Y-90762123D01*
X129406497Y-90762116D01*
X129400091Y-90702517D01*
X129387340Y-90668332D01*
X129382357Y-90598642D01*
X129387340Y-90581669D01*
X129400091Y-90547483D01*
X129406500Y-90487873D01*
X129406499Y-89492128D01*
X129400091Y-89432517D01*
X129387340Y-89398332D01*
X129382357Y-89328642D01*
X129387340Y-89311669D01*
X129400091Y-89277483D01*
X129406500Y-89217873D01*
X129406499Y-88222128D01*
X129400091Y-88162517D01*
X129387340Y-88128332D01*
X129382357Y-88058642D01*
X129387340Y-88041669D01*
X129400091Y-88007483D01*
X129406500Y-87947873D01*
X129406499Y-86952128D01*
X129400091Y-86892517D01*
X129387340Y-86858332D01*
X129382357Y-86788642D01*
X129387340Y-86771669D01*
X129400091Y-86737483D01*
X129406500Y-86677873D01*
X129406499Y-85852937D01*
X129426183Y-85785899D01*
X129478987Y-85740144D01*
X129548146Y-85730200D01*
X129592497Y-85745550D01*
X129595267Y-85747148D01*
X129595270Y-85747151D01*
X129713024Y-85799579D01*
X129768192Y-85824142D01*
X129768197Y-85824144D01*
X129953354Y-85863500D01*
X129953355Y-85863500D01*
X130142644Y-85863500D01*
X130142646Y-85863500D01*
X130327803Y-85824144D01*
X130500730Y-85747151D01*
X130653871Y-85635888D01*
X130780533Y-85495216D01*
X130875179Y-85331284D01*
X130933674Y-85151256D01*
X130953460Y-84963000D01*
X130933674Y-84774744D01*
X130875179Y-84594716D01*
X130780533Y-84430784D01*
X130653871Y-84290112D01*
X130646147Y-84284500D01*
X130500734Y-84178851D01*
X130500729Y-84178848D01*
X130368556Y-84120000D01*
X133056000Y-84120000D01*
X133056000Y-84367844D01*
X133062401Y-84427372D01*
X133062403Y-84427379D01*
X133112645Y-84562086D01*
X133112649Y-84562093D01*
X133198809Y-84677187D01*
X133198812Y-84677190D01*
X133313906Y-84763350D01*
X133313913Y-84763354D01*
X133448620Y-84813596D01*
X133448627Y-84813598D01*
X133508155Y-84819999D01*
X133508172Y-84820000D01*
X133756000Y-84820000D01*
X133756000Y-84120000D01*
X133056000Y-84120000D01*
X130368556Y-84120000D01*
X130327807Y-84101857D01*
X130327802Y-84101855D01*
X130182001Y-84070865D01*
X130142646Y-84062500D01*
X129953354Y-84062500D01*
X129920897Y-84069398D01*
X129768197Y-84101855D01*
X129768192Y-84101857D01*
X129595270Y-84178848D01*
X129592488Y-84180455D01*
X129590676Y-84180894D01*
X129589334Y-84181492D01*
X129589224Y-84181246D01*
X129524586Y-84196920D01*
X129458561Y-84174061D01*
X129415377Y-84119135D01*
X129406499Y-84073065D01*
X129406499Y-83620000D01*
X133056000Y-83620000D01*
X133410552Y-83620000D01*
X133477591Y-83639685D01*
X133492779Y-83651184D01*
X133605150Y-83750736D01*
X133755774Y-83829790D01*
X133755773Y-83829790D01*
X133825478Y-83846970D01*
X133919763Y-83870209D01*
X133980143Y-83905364D01*
X134011932Y-83967583D01*
X134013184Y-83975658D01*
X134020859Y-84038868D01*
X134020860Y-84038874D01*
X134081182Y-84197931D01*
X134116186Y-84248642D01*
X134177817Y-84337929D01*
X134211584Y-84367844D01*
X134214226Y-84370184D01*
X134251353Y-84429373D01*
X134256000Y-84463000D01*
X134256000Y-84820000D01*
X134503828Y-84820000D01*
X134503844Y-84819999D01*
X134563372Y-84813598D01*
X134563376Y-84813597D01*
X134662666Y-84776564D01*
X134732358Y-84771580D01*
X134749334Y-84776564D01*
X134848623Y-84813597D01*
X134848627Y-84813598D01*
X134908155Y-84819999D01*
X134908172Y-84820000D01*
X135156000Y-84820000D01*
X135156000Y-84463000D01*
X135175685Y-84395961D01*
X135197774Y-84370184D01*
X135200416Y-84367844D01*
X135234183Y-84337929D01*
X135303951Y-84236853D01*
X135358233Y-84192864D01*
X135427681Y-84185204D01*
X135490246Y-84216307D01*
X135508047Y-84236851D01*
X135531072Y-84270208D01*
X135577817Y-84337930D01*
X135602195Y-84359526D01*
X135611584Y-84367844D01*
X135614226Y-84370184D01*
X135651353Y-84429373D01*
X135656000Y-84463000D01*
X135656000Y-84820000D01*
X135903828Y-84820000D01*
X135903844Y-84819999D01*
X135963372Y-84813598D01*
X135963376Y-84813597D01*
X136062666Y-84776564D01*
X136132358Y-84771580D01*
X136149334Y-84776564D01*
X136248623Y-84813597D01*
X136248627Y-84813598D01*
X136308155Y-84819999D01*
X136308172Y-84820000D01*
X136556000Y-84820000D01*
X136556000Y-84463000D01*
X136575685Y-84395961D01*
X136597774Y-84370184D01*
X136634183Y-84337929D01*
X136730818Y-84197930D01*
X136760373Y-84120000D01*
X137056000Y-84120000D01*
X137056000Y-84820000D01*
X137303828Y-84820000D01*
X137303844Y-84819999D01*
X137363372Y-84813598D01*
X137363379Y-84813596D01*
X137498086Y-84763354D01*
X137498093Y-84763350D01*
X137613187Y-84677190D01*
X137613190Y-84677187D01*
X137699350Y-84562093D01*
X137699354Y-84562086D01*
X137749596Y-84427379D01*
X137749598Y-84427372D01*
X137755999Y-84367844D01*
X137756000Y-84367827D01*
X137756000Y-84120000D01*
X137056000Y-84120000D01*
X136760373Y-84120000D01*
X136791140Y-84038872D01*
X136798815Y-83975657D01*
X136826436Y-83911481D01*
X136884370Y-83872424D01*
X136892211Y-83870215D01*
X137056225Y-83829790D01*
X137190682Y-83759221D01*
X137206849Y-83750736D01*
X137206850Y-83750734D01*
X137206852Y-83750734D01*
X137319221Y-83651183D01*
X137382454Y-83621463D01*
X137401448Y-83620000D01*
X137756000Y-83620000D01*
X137756000Y-83372172D01*
X137755999Y-83372155D01*
X137749598Y-83312627D01*
X137749597Y-83312623D01*
X137712564Y-83213334D01*
X137707580Y-83143642D01*
X137712564Y-83126666D01*
X137749597Y-83027376D01*
X137749598Y-83027372D01*
X137755999Y-82967844D01*
X137756000Y-82967827D01*
X137756000Y-82720000D01*
X137401448Y-82720000D01*
X137334409Y-82700315D01*
X137319221Y-82688816D01*
X137206852Y-82589266D01*
X137188809Y-82579796D01*
X137138597Y-82531212D01*
X137122622Y-82463194D01*
X137145957Y-82397336D01*
X137188809Y-82360203D01*
X137206852Y-82350734D01*
X137319221Y-82251183D01*
X137382454Y-82221463D01*
X137401448Y-82220000D01*
X137756000Y-82220000D01*
X137756000Y-81972172D01*
X137755999Y-81972155D01*
X137749598Y-81912627D01*
X137749597Y-81912623D01*
X137712564Y-81813334D01*
X137707580Y-81743642D01*
X137712564Y-81726666D01*
X137749597Y-81627376D01*
X137749598Y-81627372D01*
X137755999Y-81567844D01*
X137756000Y-81567827D01*
X137756000Y-81320000D01*
X137401448Y-81320000D01*
X137334409Y-81300315D01*
X137319221Y-81288816D01*
X137206849Y-81189263D01*
X137056226Y-81110210D01*
X136956715Y-81085683D01*
X136892235Y-81069790D01*
X136831856Y-81034635D01*
X136800067Y-80972416D01*
X136798816Y-80964349D01*
X136791140Y-80901128D01*
X136730818Y-80742070D01*
X136634183Y-80602071D01*
X136634181Y-80602069D01*
X136597773Y-80569814D01*
X136560646Y-80510625D01*
X136556000Y-80476999D01*
X136556000Y-80120000D01*
X137056000Y-80120000D01*
X137056000Y-80820000D01*
X137756000Y-80820000D01*
X137756000Y-80572172D01*
X137755999Y-80572155D01*
X137749598Y-80512627D01*
X137749596Y-80512620D01*
X137699354Y-80377913D01*
X137699350Y-80377906D01*
X137613190Y-80262812D01*
X137613187Y-80262809D01*
X137498093Y-80176649D01*
X137498086Y-80176645D01*
X137363379Y-80126403D01*
X137363372Y-80126401D01*
X137303844Y-80120000D01*
X137056000Y-80120000D01*
X136556000Y-80120000D01*
X136308155Y-80120000D01*
X136248627Y-80126401D01*
X136248616Y-80126403D01*
X136149332Y-80163434D01*
X136079640Y-80168418D01*
X136062668Y-80163434D01*
X135963383Y-80126403D01*
X135963372Y-80126401D01*
X135903844Y-80120000D01*
X135656000Y-80120000D01*
X135656000Y-80476999D01*
X135636315Y-80544038D01*
X135614227Y-80569814D01*
X135577819Y-80602067D01*
X135536276Y-80662252D01*
X135508048Y-80703146D01*
X135453767Y-80747136D01*
X135384318Y-80754795D01*
X135321753Y-80723691D01*
X135303952Y-80703148D01*
X135234183Y-80602071D01*
X135234181Y-80602069D01*
X135234180Y-80602067D01*
X135197773Y-80569814D01*
X135160646Y-80510625D01*
X135156000Y-80476999D01*
X135156000Y-80120000D01*
X134908155Y-80120000D01*
X134848627Y-80126401D01*
X134848616Y-80126403D01*
X134749332Y-80163434D01*
X134679640Y-80168418D01*
X134662668Y-80163434D01*
X134563383Y-80126403D01*
X134563372Y-80126401D01*
X134503844Y-80120000D01*
X134256000Y-80120000D01*
X134256000Y-80476999D01*
X134236315Y-80544038D01*
X134214227Y-80569814D01*
X134177818Y-80602069D01*
X134081182Y-80742068D01*
X134020860Y-80901125D01*
X134020859Y-80901130D01*
X134013184Y-80964342D01*
X133985562Y-81028519D01*
X133927627Y-81067575D01*
X133919763Y-81069791D01*
X133755773Y-81110210D01*
X133605150Y-81189263D01*
X133492779Y-81288816D01*
X133429546Y-81318537D01*
X133410552Y-81320000D01*
X133056000Y-81320000D01*
X133056000Y-81567844D01*
X133062401Y-81627372D01*
X133062403Y-81627383D01*
X133099434Y-81726668D01*
X133104418Y-81796360D01*
X133099434Y-81813332D01*
X133062403Y-81912616D01*
X133062401Y-81912627D01*
X133056000Y-81972155D01*
X133056000Y-82220000D01*
X133410552Y-82220000D01*
X133477591Y-82239685D01*
X133492778Y-82251183D01*
X133605148Y-82350734D01*
X133618194Y-82357581D01*
X133623191Y-82360204D01*
X133673403Y-82408789D01*
X133689377Y-82476808D01*
X133666041Y-82542666D01*
X133623191Y-82579796D01*
X133605149Y-82589265D01*
X133492779Y-82688816D01*
X133429546Y-82718537D01*
X133410552Y-82720000D01*
X133056000Y-82720000D01*
X133056000Y-82967844D01*
X133062401Y-83027372D01*
X133062403Y-83027383D01*
X133099434Y-83126668D01*
X133104418Y-83196360D01*
X133099434Y-83213332D01*
X133062403Y-83312616D01*
X133062401Y-83312627D01*
X133056000Y-83372155D01*
X133056000Y-83620000D01*
X129406499Y-83620000D01*
X129406499Y-83142128D01*
X129400091Y-83082517D01*
X129387340Y-83048332D01*
X129382357Y-82978642D01*
X129387340Y-82961669D01*
X129400091Y-82927483D01*
X129406500Y-82867873D01*
X129406499Y-81872128D01*
X129400091Y-81812517D01*
X129387340Y-81778332D01*
X129382357Y-81708642D01*
X129387340Y-81691669D01*
X129400091Y-81657483D01*
X129406500Y-81597873D01*
X129406499Y-80820000D01*
X133056000Y-80820000D01*
X133756000Y-80820000D01*
X133756000Y-80120000D01*
X133508155Y-80120000D01*
X133448627Y-80126401D01*
X133448620Y-80126403D01*
X133313913Y-80176645D01*
X133313906Y-80176649D01*
X133198812Y-80262809D01*
X133198809Y-80262812D01*
X133112649Y-80377906D01*
X133112645Y-80377913D01*
X133062403Y-80512620D01*
X133062401Y-80512627D01*
X133056000Y-80572155D01*
X133056000Y-80820000D01*
X129406499Y-80820000D01*
X129406499Y-80602128D01*
X129400091Y-80542517D01*
X129387340Y-80508332D01*
X129382357Y-80438642D01*
X129387340Y-80421669D01*
X129400091Y-80387483D01*
X129406500Y-80327873D01*
X129406499Y-79332128D01*
X129400091Y-79272517D01*
X129387340Y-79238332D01*
X129382357Y-79168642D01*
X129387340Y-79151669D01*
X129400091Y-79117483D01*
X129406500Y-79057873D01*
X129406499Y-78062128D01*
X129400091Y-78002517D01*
X129387340Y-77968332D01*
X129382357Y-77898642D01*
X129387340Y-77881669D01*
X129400091Y-77847483D01*
X129406500Y-77787873D01*
X129406499Y-76792128D01*
X129400091Y-76732517D01*
X129387340Y-76698332D01*
X129382357Y-76628642D01*
X129387340Y-76611669D01*
X129400091Y-76577483D01*
X129406500Y-76517873D01*
X129406499Y-75522128D01*
X129400091Y-75462517D01*
X129387073Y-75427616D01*
X129382090Y-75357926D01*
X129387075Y-75340949D01*
X129399597Y-75307375D01*
X129399598Y-75307372D01*
X129405999Y-75247844D01*
X129406000Y-75247827D01*
X129406000Y-75000000D01*
X126906000Y-75000000D01*
X126906000Y-75247834D01*
X126907012Y-75257240D01*
X126894609Y-75326000D01*
X126847001Y-75377139D01*
X126783723Y-75394500D01*
X126754743Y-75394500D01*
X126739122Y-75392775D01*
X126739095Y-75393061D01*
X126731333Y-75392326D01*
X126664113Y-75394439D01*
X126660219Y-75394500D01*
X126632650Y-75394500D01*
X126628673Y-75395002D01*
X126617042Y-75395917D01*
X126573374Y-75397289D01*
X126573368Y-75397290D01*
X126554126Y-75402880D01*
X126535087Y-75406823D01*
X126515217Y-75409334D01*
X126515203Y-75409337D01*
X126474598Y-75425413D01*
X126463554Y-75429194D01*
X126421614Y-75441379D01*
X126421610Y-75441381D01*
X126404366Y-75451579D01*
X126386905Y-75460133D01*
X126368274Y-75467510D01*
X126368262Y-75467517D01*
X126332933Y-75493185D01*
X126323173Y-75499596D01*
X126285580Y-75521829D01*
X126271414Y-75535995D01*
X126256624Y-75548627D01*
X126240414Y-75560404D01*
X126240411Y-75560407D01*
X126212573Y-75594058D01*
X126204711Y-75602697D01*
X123983228Y-77824181D01*
X123921905Y-77857666D01*
X123895547Y-77860500D01*
X123465737Y-77860500D01*
X123450120Y-77858776D01*
X123450093Y-77859062D01*
X123442331Y-77858327D01*
X123375144Y-77860439D01*
X123371250Y-77860500D01*
X123343650Y-77860500D01*
X123339962Y-77860965D01*
X123339649Y-77861005D01*
X123328031Y-77861918D01*
X123284377Y-77863290D01*
X123284367Y-77863292D01*
X123265134Y-77868879D01*
X123246094Y-77872822D01*
X123226217Y-77875334D01*
X123226210Y-77875335D01*
X123226208Y-77875336D01*
X123226206Y-77875336D01*
X123226205Y-77875337D01*
X123185584Y-77891419D01*
X123174537Y-77895201D01*
X123132611Y-77907382D01*
X123132608Y-77907383D01*
X123115363Y-77917581D01*
X123097901Y-77926135D01*
X123079272Y-77933511D01*
X123079267Y-77933514D01*
X123043926Y-77959189D01*
X123034168Y-77965599D01*
X122996580Y-77987828D01*
X122982408Y-78002000D01*
X122967623Y-78014628D01*
X122951412Y-78026407D01*
X122923571Y-78060059D01*
X122915711Y-78068696D01*
X121188226Y-79796181D01*
X121126903Y-79829666D01*
X121100545Y-79832500D01*
X120293129Y-79832500D01*
X120293123Y-79832501D01*
X120233516Y-79838908D01*
X120098671Y-79889202D01*
X120098664Y-79889206D01*
X119983455Y-79975452D01*
X119983452Y-79975455D01*
X119897206Y-80090664D01*
X119897202Y-80090671D01*
X119846908Y-80225517D01*
X119840501Y-80285116D01*
X119840500Y-80285135D01*
X119840500Y-81390870D01*
X119840501Y-81390876D01*
X119846908Y-81450483D01*
X119897202Y-81585328D01*
X119897206Y-81585335D01*
X119983452Y-81700544D01*
X119983584Y-81700676D01*
X119983673Y-81700839D01*
X119988768Y-81707645D01*
X119987789Y-81708377D01*
X120017069Y-81761999D01*
X120012085Y-81831691D01*
X119988562Y-81868291D01*
X119989125Y-81868712D01*
X119897649Y-81990906D01*
X119897645Y-81990913D01*
X119847403Y-82125620D01*
X119847401Y-82125627D01*
X119841000Y-82185155D01*
X119841000Y-82488000D01*
X122221000Y-82488000D01*
X122221000Y-82185172D01*
X122220999Y-82185155D01*
X122214598Y-82125627D01*
X122214596Y-82125620D01*
X122164354Y-81990913D01*
X122164350Y-81990906D01*
X122072875Y-81868712D01*
X122073968Y-81867893D01*
X122044931Y-81814715D01*
X122049915Y-81745023D01*
X122073708Y-81708001D01*
X122073232Y-81707645D01*
X122078215Y-81700987D01*
X122078416Y-81700676D01*
X122078542Y-81700548D01*
X122078546Y-81700546D01*
X122164796Y-81585331D01*
X122215091Y-81450483D01*
X122221500Y-81390873D01*
X122221499Y-80583451D01*
X122241183Y-80516413D01*
X122257813Y-80495776D01*
X123368819Y-79384771D01*
X123430142Y-79351286D01*
X123499834Y-79356270D01*
X123555767Y-79398142D01*
X123580184Y-79463606D01*
X123580500Y-79472452D01*
X123580500Y-95167255D01*
X123578775Y-95182872D01*
X123579061Y-95182899D01*
X123578326Y-95190665D01*
X123580439Y-95257872D01*
X123580500Y-95261767D01*
X123580500Y-95262500D01*
X123560815Y-95329539D01*
X123508011Y-95375294D01*
X123456500Y-95386500D01*
X114387954Y-95386500D01*
X114320915Y-95366815D01*
X114292101Y-95341165D01*
X114254568Y-95295431D01*
X114101005Y-95169405D01*
X114100998Y-95169401D01*
X113925808Y-95075760D01*
X113745498Y-95021064D01*
X113735701Y-95018092D01*
X113735699Y-95018091D01*
X113735701Y-95018091D01*
X113621336Y-95006827D01*
X113587547Y-95003500D01*
X112472453Y-95003500D01*
X112465846Y-95004150D01*
X112450652Y-95005647D01*
X112382007Y-94992627D01*
X112331297Y-94944562D01*
X112314500Y-94882244D01*
X112314500Y-93345452D01*
X112334185Y-93278413D01*
X112350819Y-93257771D01*
X112805684Y-92802906D01*
X113286788Y-92321801D01*
X113299042Y-92311986D01*
X113298859Y-92311764D01*
X113304868Y-92306791D01*
X113304877Y-92306786D01*
X113350949Y-92257722D01*
X113353566Y-92255023D01*
X113373120Y-92235471D01*
X113375576Y-92232303D01*
X113383156Y-92223427D01*
X113413062Y-92191582D01*
X113422713Y-92174024D01*
X113433396Y-92157761D01*
X113445673Y-92141936D01*
X113463021Y-92101844D01*
X113468151Y-92091371D01*
X113489197Y-92053092D01*
X113494180Y-92033680D01*
X113500481Y-92015280D01*
X113508437Y-91996896D01*
X113515270Y-91953748D01*
X113517633Y-91942338D01*
X113528500Y-91900019D01*
X113528500Y-91879983D01*
X113530027Y-91860582D01*
X113533160Y-91840804D01*
X113529050Y-91797324D01*
X113528500Y-91785655D01*
X113528500Y-87882452D01*
X113548185Y-87815413D01*
X113564813Y-87794776D01*
X113653037Y-87706552D01*
X113714356Y-87673070D01*
X113784048Y-87678054D01*
X113839982Y-87719925D01*
X113859074Y-87768433D01*
X113861620Y-87767832D01*
X113863403Y-87775379D01*
X113913645Y-87910086D01*
X113913649Y-87910093D01*
X113999809Y-88025187D01*
X113999812Y-88025190D01*
X114114906Y-88111350D01*
X114114913Y-88111354D01*
X114249620Y-88161596D01*
X114249627Y-88161598D01*
X114309155Y-88167999D01*
X114309172Y-88168000D01*
X114882000Y-88168000D01*
X114882000Y-87618000D01*
X115382000Y-87618000D01*
X115382000Y-88168000D01*
X115954828Y-88168000D01*
X115954844Y-88167999D01*
X116014372Y-88161598D01*
X116014379Y-88161596D01*
X116149086Y-88111354D01*
X116149093Y-88111350D01*
X116264187Y-88025190D01*
X116264190Y-88025187D01*
X116350350Y-87910093D01*
X116350354Y-87910086D01*
X116400596Y-87775379D01*
X116400598Y-87775372D01*
X116406999Y-87715844D01*
X116407000Y-87715827D01*
X116407000Y-87618000D01*
X115382000Y-87618000D01*
X114882000Y-87618000D01*
X114882000Y-87292499D01*
X114901685Y-87225460D01*
X114954489Y-87179705D01*
X115005997Y-87168499D01*
X115954872Y-87168499D01*
X116014483Y-87162091D01*
X116111736Y-87125817D01*
X116155069Y-87118000D01*
X116407000Y-87118000D01*
X116407000Y-87020172D01*
X116406999Y-87020155D01*
X116400598Y-86960627D01*
X116382479Y-86912048D01*
X116377495Y-86842356D01*
X116382476Y-86825391D01*
X116401091Y-86775483D01*
X116407500Y-86715873D01*
X116407499Y-86020128D01*
X116401091Y-85960517D01*
X116395884Y-85946557D01*
X116350797Y-85825671D01*
X116350793Y-85825664D01*
X116264547Y-85710455D01*
X116264544Y-85710452D01*
X116149335Y-85624206D01*
X116149328Y-85624202D01*
X116014482Y-85573908D01*
X116014483Y-85573908D01*
X115954883Y-85567501D01*
X115954881Y-85567500D01*
X115954873Y-85567500D01*
X115954864Y-85567500D01*
X114309129Y-85567500D01*
X114309123Y-85567501D01*
X114249516Y-85573908D01*
X114114671Y-85624202D01*
X114114664Y-85624206D01*
X113999457Y-85710451D01*
X113999447Y-85710460D01*
X113991330Y-85721304D01*
X113937710Y-85762284D01*
X113909599Y-85773413D01*
X113898555Y-85777194D01*
X113856609Y-85789382D01*
X113839367Y-85799579D01*
X113821899Y-85808137D01*
X113803269Y-85815513D01*
X113803266Y-85815515D01*
X113767939Y-85841181D01*
X113758180Y-85847592D01*
X113720579Y-85869830D01*
X113706408Y-85884000D01*
X113691623Y-85896628D01*
X113675412Y-85908407D01*
X113647571Y-85942059D01*
X113639711Y-85950696D01*
X112519208Y-87071199D01*
X112506951Y-87081020D01*
X112507134Y-87081241D01*
X112501122Y-87086214D01*
X112455098Y-87135223D01*
X112452391Y-87138016D01*
X112432889Y-87157517D01*
X112432875Y-87157534D01*
X112430407Y-87160715D01*
X112422843Y-87169570D01*
X112392937Y-87201418D01*
X112392936Y-87201420D01*
X112383284Y-87218976D01*
X112372610Y-87235226D01*
X112360329Y-87251061D01*
X112360324Y-87251068D01*
X112342975Y-87291158D01*
X112337838Y-87301644D01*
X112316803Y-87339906D01*
X112311822Y-87359307D01*
X112305521Y-87377710D01*
X112297562Y-87396102D01*
X112297561Y-87396105D01*
X112290728Y-87439243D01*
X112288360Y-87450676D01*
X112282286Y-87474335D01*
X112246549Y-87534373D01*
X112184026Y-87565561D01*
X112162181Y-87567500D01*
X110309129Y-87567500D01*
X110309123Y-87567501D01*
X110249516Y-87573908D01*
X110114671Y-87624202D01*
X110114664Y-87624206D01*
X109999455Y-87710452D01*
X109999452Y-87710455D01*
X109913206Y-87825664D01*
X109913202Y-87825671D01*
X109862908Y-87960517D01*
X109856501Y-88020116D01*
X109856500Y-88020135D01*
X109856500Y-89315870D01*
X109856501Y-89315876D01*
X109862908Y-89375483D01*
X109913202Y-89510328D01*
X109913206Y-89510335D01*
X109999452Y-89625544D01*
X109999455Y-89625547D01*
X110114664Y-89711793D01*
X110114671Y-89711797D01*
X110249517Y-89762091D01*
X110249516Y-89762091D01*
X110256444Y-89762835D01*
X110309127Y-89768500D01*
X112153500Y-89768499D01*
X112220539Y-89788184D01*
X112266294Y-89840987D01*
X112277500Y-89892499D01*
X112277500Y-91510546D01*
X112257815Y-91577585D01*
X112241181Y-91598227D01*
X111305208Y-92534199D01*
X111292951Y-92544020D01*
X111293134Y-92544241D01*
X111287122Y-92549214D01*
X111241098Y-92598223D01*
X111238391Y-92601016D01*
X111218889Y-92620517D01*
X111218875Y-92620534D01*
X111216407Y-92623715D01*
X111208843Y-92632570D01*
X111178937Y-92664418D01*
X111178936Y-92664420D01*
X111169284Y-92681976D01*
X111158610Y-92698226D01*
X111146329Y-92714061D01*
X111146324Y-92714068D01*
X111128975Y-92754158D01*
X111123838Y-92764644D01*
X111102803Y-92802906D01*
X111097822Y-92822307D01*
X111091521Y-92840710D01*
X111083562Y-92859102D01*
X111083561Y-92859105D01*
X111076728Y-92902243D01*
X111074360Y-92913674D01*
X111063501Y-92955971D01*
X111063500Y-92955982D01*
X111063500Y-92976016D01*
X111061973Y-92995415D01*
X111058840Y-93015194D01*
X111058840Y-93015195D01*
X111062950Y-93058674D01*
X111063500Y-93070343D01*
X111063500Y-97544295D01*
X111061775Y-97559912D01*
X111062061Y-97559939D01*
X111061326Y-97567705D01*
X111063439Y-97634912D01*
X111063500Y-97638807D01*
X111063500Y-97666397D01*
X111064003Y-97670375D01*
X111064918Y-97682007D01*
X111066290Y-97725664D01*
X111066291Y-97725667D01*
X111071880Y-97744907D01*
X111075824Y-97763951D01*
X111078336Y-97783832D01*
X111094414Y-97824443D01*
X111098197Y-97835492D01*
X111110381Y-97877428D01*
X111120580Y-97894674D01*
X111129136Y-97912140D01*
X111136514Y-97930772D01*
X111162181Y-97966100D01*
X111168593Y-97975861D01*
X111190828Y-98013457D01*
X111190833Y-98013464D01*
X111204990Y-98027620D01*
X111217628Y-98042416D01*
X111229405Y-98058626D01*
X111229406Y-98058627D01*
X111263057Y-98086465D01*
X111271698Y-98094328D01*
X111486942Y-98309572D01*
X111520427Y-98370895D01*
X111522664Y-98409407D01*
X111508620Y-98551999D01*
X111528091Y-98749699D01*
X111585760Y-98939808D01*
X111679401Y-99114998D01*
X111679405Y-99115005D01*
X111805431Y-99268568D01*
X111958994Y-99394594D01*
X111959001Y-99394598D01*
X112134191Y-99488239D01*
X112134193Y-99488239D01*
X112134196Y-99488241D01*
X112324299Y-99545908D01*
X112324298Y-99545908D01*
X112361337Y-99549556D01*
X112472453Y-99560500D01*
X112472456Y-99560500D01*
X113587544Y-99560500D01*
X113587547Y-99560500D01*
X113735701Y-99545908D01*
X113925804Y-99488241D01*
X114101004Y-99394595D01*
X114254568Y-99268568D01*
X114380595Y-99115004D01*
X114474241Y-98939804D01*
X114531908Y-98749701D01*
X114551380Y-98552000D01*
X114531908Y-98354299D01*
X114474241Y-98164196D01*
X114474239Y-98164193D01*
X114474239Y-98164191D01*
X114380594Y-97988993D01*
X114378217Y-97985436D01*
X114357339Y-97918759D01*
X114375824Y-97851379D01*
X114378224Y-97847644D01*
X114380182Y-97844713D01*
X114473774Y-97669615D01*
X114515519Y-97532000D01*
X113379607Y-97532000D01*
X113439238Y-97414969D01*
X113460298Y-97282000D01*
X113439238Y-97149031D01*
X113379607Y-97032000D01*
X114515519Y-97032000D01*
X114515519Y-97031999D01*
X114473774Y-96894384D01*
X114433990Y-96819953D01*
X114419748Y-96751550D01*
X114444748Y-96686306D01*
X114501053Y-96644936D01*
X114543348Y-96637500D01*
X124888981Y-96637500D01*
X124909016Y-96637500D01*
X124928413Y-96639026D01*
X124948196Y-96642160D01*
X124991675Y-96638050D01*
X125003344Y-96637500D01*
X130561548Y-96637500D01*
X130628587Y-96657185D01*
X130649229Y-96673819D01*
X132377727Y-98402318D01*
X132411212Y-98463641D01*
X132406228Y-98533333D01*
X132377727Y-98577680D01*
X131188208Y-99767199D01*
X131175951Y-99777020D01*
X131176134Y-99777241D01*
X131170122Y-99782214D01*
X131124098Y-99831223D01*
X131121391Y-99834016D01*
X131101889Y-99853517D01*
X131101875Y-99853534D01*
X131099407Y-99856715D01*
X131091843Y-99865570D01*
X131061937Y-99897418D01*
X131061936Y-99897420D01*
X131052284Y-99914976D01*
X131041610Y-99931226D01*
X131029329Y-99947061D01*
X131029324Y-99947068D01*
X131011975Y-99987158D01*
X131006838Y-99997644D01*
X130985803Y-100035906D01*
X130980822Y-100055307D01*
X130974521Y-100073710D01*
X130966562Y-100092102D01*
X130966561Y-100092105D01*
X130959728Y-100135243D01*
X130957360Y-100146674D01*
X130946501Y-100188971D01*
X130946500Y-100188982D01*
X130946500Y-100209016D01*
X130944973Y-100228415D01*
X130941840Y-100248194D01*
X130941840Y-100248195D01*
X130945950Y-100291674D01*
X130946500Y-100303343D01*
X130946500Y-106611255D01*
X130944775Y-106626872D01*
X130945061Y-106626899D01*
X130944326Y-106634665D01*
X130946439Y-106701872D01*
X130946500Y-106705767D01*
X130946500Y-106733357D01*
X130947003Y-106737335D01*
X130947918Y-106748967D01*
X130949290Y-106792624D01*
X130949291Y-106792627D01*
X130954880Y-106811867D01*
X130958824Y-106830911D01*
X130961336Y-106850792D01*
X130977414Y-106891403D01*
X130981197Y-106902452D01*
X130993382Y-106944390D01*
X130994038Y-106945500D01*
X131003580Y-106961634D01*
X131012138Y-106979103D01*
X131019514Y-106997732D01*
X131045181Y-107033060D01*
X131051593Y-107042821D01*
X131073828Y-107080417D01*
X131073833Y-107080424D01*
X131087990Y-107094580D01*
X131100628Y-107109376D01*
X131112405Y-107125586D01*
X131112406Y-107125587D01*
X131146057Y-107153425D01*
X131154698Y-107161288D01*
X131797229Y-107803819D01*
X131830714Y-107865142D01*
X131825730Y-107934834D01*
X131783858Y-107990767D01*
X131718394Y-108015184D01*
X131709548Y-108015500D01*
X112578500Y-108015500D01*
X112511461Y-107995815D01*
X112465706Y-107943011D01*
X112454500Y-107891500D01*
X112454499Y-107398129D01*
X112454498Y-107398123D01*
X112454497Y-107398116D01*
X112448091Y-107338517D01*
X112397796Y-107203669D01*
X112397795Y-107203668D01*
X112397793Y-107203664D01*
X112311547Y-107088455D01*
X112311544Y-107088452D01*
X112196335Y-107002206D01*
X112196328Y-107002202D01*
X112061482Y-106951908D01*
X112061483Y-106951908D01*
X112001883Y-106945501D01*
X112001881Y-106945500D01*
X112001873Y-106945500D01*
X112001864Y-106945500D01*
X109026129Y-106945500D01*
X109026123Y-106945501D01*
X108966516Y-106951908D01*
X108831671Y-107002202D01*
X108831664Y-107002206D01*
X108716455Y-107088452D01*
X108716452Y-107088455D01*
X108630206Y-107203664D01*
X108630202Y-107203671D01*
X108579908Y-107338517D01*
X108575590Y-107378687D01*
X108573501Y-107398123D01*
X108573500Y-107398135D01*
X108573500Y-108613870D01*
X108573501Y-108613876D01*
X108579908Y-108673483D01*
X108630202Y-108808328D01*
X108630206Y-108808335D01*
X108716452Y-108923544D01*
X108716455Y-108923547D01*
X108831664Y-109009793D01*
X108831671Y-109009797D01*
X108966517Y-109060091D01*
X108966516Y-109060091D01*
X108973444Y-109060835D01*
X109026127Y-109066500D01*
X110638547Y-109066499D01*
X110705586Y-109086184D01*
X110726228Y-109102818D01*
X110734530Y-109111120D01*
X110737695Y-109113575D01*
X110746571Y-109121156D01*
X110778418Y-109151062D01*
X110778422Y-109151064D01*
X110795973Y-109160713D01*
X110812231Y-109171392D01*
X110828064Y-109183674D01*
X110863410Y-109198968D01*
X110868155Y-109201022D01*
X110878635Y-109206155D01*
X110890794Y-109212840D01*
X110940056Y-109262386D01*
X110954711Y-109330702D01*
X110930106Y-109396096D01*
X110874052Y-109437806D01*
X110831053Y-109445500D01*
X109026129Y-109445500D01*
X109026123Y-109445501D01*
X108966516Y-109451908D01*
X108831671Y-109502202D01*
X108831664Y-109502206D01*
X108716455Y-109588452D01*
X108716452Y-109588455D01*
X108630206Y-109703664D01*
X108630202Y-109703671D01*
X108579908Y-109838517D01*
X108573501Y-109898116D01*
X108573501Y-109898123D01*
X108573500Y-109898135D01*
X108573500Y-111113870D01*
X108573501Y-111113876D01*
X108579908Y-111173483D01*
X108630202Y-111308328D01*
X108630206Y-111308335D01*
X108721768Y-111430645D01*
X108719063Y-111432669D01*
X108744712Y-111479642D01*
X108739728Y-111549334D01*
X108719999Y-111580031D01*
X108721768Y-111581355D01*
X108630206Y-111703664D01*
X108630202Y-111703671D01*
X108579908Y-111838517D01*
X108573501Y-111898116D01*
X108573500Y-111898135D01*
X108573500Y-113113870D01*
X103974697Y-113113870D01*
X103959120Y-104936000D01*
X104740386Y-104936000D01*
X104760816Y-105234697D01*
X104760817Y-105234699D01*
X104821727Y-105527818D01*
X104821732Y-105527835D01*
X104921991Y-105809936D01*
X104921992Y-105809938D01*
X105059734Y-106075767D01*
X105232389Y-106320363D01*
X105436742Y-106539172D01*
X105668986Y-106728117D01*
X105668988Y-106728118D01*
X105668989Y-106728119D01*
X105924796Y-106883678D01*
X106104269Y-106961634D01*
X106199403Y-107002957D01*
X106487696Y-107083733D01*
X106748460Y-107119573D01*
X106784301Y-107124500D01*
X106784302Y-107124500D01*
X107083699Y-107124500D01*
X107115675Y-107120104D01*
X107380304Y-107083733D01*
X107668597Y-107002957D01*
X107943205Y-106883677D01*
X108199014Y-106728117D01*
X108431258Y-106539172D01*
X108635611Y-106320363D01*
X108808266Y-106075767D01*
X108946008Y-105809938D01*
X109046269Y-105527830D01*
X109046270Y-105527823D01*
X109046272Y-105527818D01*
X109077536Y-105377365D01*
X109107183Y-105234697D01*
X109127614Y-104936000D01*
X109107183Y-104637303D01*
X109081280Y-104512652D01*
X109046272Y-104344181D01*
X109046267Y-104344164D01*
X108946008Y-104062063D01*
X108946008Y-104062062D01*
X108808266Y-103796233D01*
X108635611Y-103551637D01*
X108431258Y-103332828D01*
X108431251Y-103332823D01*
X108431250Y-103332821D01*
X108199010Y-103143880D01*
X107943203Y-102988321D01*
X107668600Y-102869044D01*
X107668598Y-102869043D01*
X107668597Y-102869043D01*
X107586575Y-102846061D01*
X107380309Y-102788268D01*
X107380305Y-102788267D01*
X107380304Y-102788267D01*
X107232001Y-102767883D01*
X107083699Y-102747500D01*
X107083698Y-102747500D01*
X106784302Y-102747500D01*
X106784301Y-102747500D01*
X106487696Y-102788267D01*
X106487690Y-102788268D01*
X106199399Y-102869044D01*
X105924796Y-102988321D01*
X105668989Y-103143880D01*
X105436749Y-103332821D01*
X105436743Y-103332826D01*
X105436742Y-103332828D01*
X105232389Y-103551637D01*
X105185890Y-103617511D01*
X105059734Y-103796232D01*
X104921991Y-104062063D01*
X104821732Y-104344164D01*
X104821727Y-104344181D01*
X104760817Y-104637300D01*
X104760816Y-104637302D01*
X104740386Y-104936000D01*
X103959120Y-104936000D01*
X103922510Y-85715870D01*
X109856500Y-85715870D01*
X109856501Y-85715876D01*
X109862908Y-85775483D01*
X109913202Y-85910328D01*
X109913206Y-85910335D01*
X109999452Y-86025544D01*
X109999455Y-86025547D01*
X110114664Y-86111793D01*
X110114671Y-86111797D01*
X110249517Y-86162091D01*
X110249516Y-86162091D01*
X110256444Y-86162835D01*
X110309127Y-86168500D01*
X112204872Y-86168499D01*
X112264483Y-86162091D01*
X112399331Y-86111796D01*
X112514546Y-86025546D01*
X112600796Y-85910331D01*
X112651091Y-85775483D01*
X112657500Y-85715873D01*
X112657499Y-84420128D01*
X112651877Y-84367827D01*
X112651091Y-84360516D01*
X112600797Y-84225671D01*
X112600793Y-84225664D01*
X112514547Y-84110455D01*
X112514544Y-84110452D01*
X112399335Y-84024206D01*
X112399328Y-84024202D01*
X112264482Y-83973908D01*
X112264483Y-83973908D01*
X112204883Y-83967501D01*
X112204881Y-83967500D01*
X112204873Y-83967500D01*
X112204864Y-83967500D01*
X110309129Y-83967500D01*
X110309123Y-83967501D01*
X110249516Y-83973908D01*
X110114671Y-84024202D01*
X110114664Y-84024206D01*
X109999455Y-84110452D01*
X109999452Y-84110455D01*
X109913206Y-84225664D01*
X109913202Y-84225671D01*
X109862908Y-84360517D01*
X109857360Y-84412127D01*
X109856501Y-84420123D01*
X109856500Y-84420135D01*
X109856500Y-85715870D01*
X103922510Y-85715870D01*
X103917314Y-82988000D01*
X119841000Y-82988000D01*
X119841000Y-83290844D01*
X119847401Y-83350372D01*
X119847403Y-83350379D01*
X119897645Y-83485086D01*
X119897649Y-83485093D01*
X119983809Y-83600187D01*
X119983812Y-83600190D01*
X120098906Y-83686350D01*
X120098913Y-83686354D01*
X120233620Y-83736596D01*
X120233627Y-83736598D01*
X120293155Y-83742999D01*
X120293172Y-83743000D01*
X120781000Y-83743000D01*
X120781000Y-82988000D01*
X121281000Y-82988000D01*
X121281000Y-83743000D01*
X121768828Y-83743000D01*
X121768844Y-83742999D01*
X121828372Y-83736598D01*
X121828379Y-83736596D01*
X121963086Y-83686354D01*
X121963093Y-83686350D01*
X122078187Y-83600190D01*
X122078190Y-83600187D01*
X122164350Y-83485093D01*
X122164354Y-83485086D01*
X122214596Y-83350379D01*
X122214598Y-83350372D01*
X122220999Y-83290844D01*
X122221000Y-83290827D01*
X122221000Y-82988000D01*
X121281000Y-82988000D01*
X120781000Y-82988000D01*
X119841000Y-82988000D01*
X103917314Y-82988000D01*
X103901147Y-74500000D01*
X126906000Y-74500000D01*
X127906000Y-74500000D01*
X127906000Y-73800000D01*
X128406000Y-73800000D01*
X128406000Y-74500000D01*
X129406000Y-74500000D01*
X144406000Y-74500000D01*
X145406000Y-74500000D01*
X145406000Y-73800000D01*
X145906000Y-73800000D01*
X145906000Y-74500000D01*
X146906000Y-74500000D01*
X146906000Y-74252172D01*
X146905999Y-74252155D01*
X146899598Y-74192627D01*
X146899596Y-74192620D01*
X146849354Y-74057913D01*
X146849350Y-74057906D01*
X146763190Y-73942812D01*
X146763187Y-73942809D01*
X146648093Y-73856649D01*
X146648086Y-73856645D01*
X146513379Y-73806403D01*
X146513372Y-73806401D01*
X146453844Y-73800000D01*
X145906000Y-73800000D01*
X145406000Y-73800000D01*
X144858155Y-73800000D01*
X144798627Y-73806401D01*
X144798620Y-73806403D01*
X144663913Y-73856645D01*
X144663906Y-73856649D01*
X144548812Y-73942809D01*
X144548809Y-73942812D01*
X144462649Y-74057906D01*
X144462645Y-74057913D01*
X144412403Y-74192620D01*
X144412401Y-74192627D01*
X144406000Y-74252155D01*
X144406000Y-74500000D01*
X129406000Y-74500000D01*
X129406000Y-74252172D01*
X129405999Y-74252155D01*
X129399598Y-74192627D01*
X129399596Y-74192620D01*
X129349354Y-74057913D01*
X129349350Y-74057906D01*
X129263190Y-73942812D01*
X129263187Y-73942809D01*
X129148093Y-73856649D01*
X129148086Y-73856645D01*
X129013379Y-73806403D01*
X129013372Y-73806401D01*
X128953844Y-73800000D01*
X128406000Y-73800000D01*
X127906000Y-73800000D01*
X127358155Y-73800000D01*
X127298627Y-73806401D01*
X127298620Y-73806403D01*
X127163913Y-73856645D01*
X127163906Y-73856649D01*
X127048812Y-73942809D01*
X127048809Y-73942812D01*
X126962649Y-74057906D01*
X126962645Y-74057913D01*
X126912403Y-74192620D01*
X126912401Y-74192627D01*
X126906000Y-74252155D01*
X126906000Y-74500000D01*
X103901147Y-74500000D01*
X103896160Y-71882000D01*
X113907073Y-71882000D01*
X113926737Y-72094216D01*
X113926738Y-72094219D01*
X113985058Y-72299196D01*
X113985064Y-72299211D01*
X114080061Y-72489991D01*
X114080064Y-72489996D01*
X114088836Y-72501610D01*
X114599064Y-71991382D01*
X114625481Y-72081351D01*
X114699327Y-72196258D01*
X114802555Y-72285705D01*
X114926801Y-72342446D01*
X114951548Y-72346004D01*
X114444991Y-72852559D01*
X114547204Y-72915847D01*
X114547208Y-72915849D01*
X114745936Y-72992836D01*
X114745941Y-72992837D01*
X114955439Y-73032000D01*
X115168561Y-73032000D01*
X115378058Y-72992837D01*
X115378063Y-72992836D01*
X115576791Y-72915849D01*
X115576798Y-72915846D01*
X115679006Y-72852560D01*
X115679006Y-72852559D01*
X115172451Y-72346004D01*
X115197199Y-72342446D01*
X115321445Y-72285705D01*
X115424673Y-72196258D01*
X115498519Y-72081351D01*
X115524935Y-71991382D01*
X116035162Y-72501609D01*
X116035163Y-72501609D01*
X116043940Y-72489988D01*
X116043942Y-72489985D01*
X116138933Y-72299216D01*
X116138941Y-72299196D01*
X116197261Y-72094219D01*
X116197262Y-72094216D01*
X116216927Y-71882000D01*
X116216927Y-71881999D01*
X116197262Y-71669783D01*
X116197261Y-71669780D01*
X116138941Y-71464803D01*
X116138933Y-71464783D01*
X116043942Y-71274014D01*
X116043937Y-71274006D01*
X116035163Y-71262389D01*
X115524935Y-71772616D01*
X115498519Y-71682649D01*
X115424673Y-71567742D01*
X115321445Y-71478295D01*
X115197199Y-71421554D01*
X115172451Y-71417995D01*
X115679007Y-70911439D01*
X115576793Y-70848151D01*
X115576789Y-70848149D01*
X115378063Y-70771163D01*
X115378058Y-70771162D01*
X115168561Y-70732000D01*
X114955439Y-70732000D01*
X114745941Y-70771162D01*
X114745936Y-70771163D01*
X114547210Y-70848149D01*
X114547201Y-70848154D01*
X114444992Y-70911438D01*
X114444991Y-70911439D01*
X114951548Y-71417995D01*
X114926801Y-71421554D01*
X114802555Y-71478295D01*
X114699327Y-71567742D01*
X114625481Y-71682649D01*
X114599064Y-71772616D01*
X114088836Y-71262388D01*
X114080059Y-71274010D01*
X113985066Y-71464783D01*
X113985058Y-71464803D01*
X113926738Y-71669780D01*
X113926737Y-71669783D01*
X113907073Y-71881999D01*
X113907073Y-71882000D01*
X103896160Y-71882000D01*
X103889297Y-68278781D01*
X113911500Y-68278781D01*
X113914234Y-68319102D01*
X113957567Y-68493350D01*
X114037346Y-68654209D01*
X114037347Y-68654210D01*
X114149841Y-68794159D01*
X114289790Y-68906653D01*
X114450651Y-68986433D01*
X114624900Y-69029766D01*
X114665216Y-69032500D01*
X114665218Y-69032500D01*
X115458782Y-69032500D01*
X115458784Y-69032500D01*
X115499100Y-69029766D01*
X115673349Y-68986433D01*
X115834210Y-68906653D01*
X115974159Y-68794159D01*
X116086653Y-68654210D01*
X116166433Y-68493349D01*
X116209766Y-68319100D01*
X116212500Y-68278784D01*
X116212500Y-67485216D01*
X116209766Y-67444900D01*
X116166433Y-67270651D01*
X116161151Y-67260000D01*
X127906000Y-67260000D01*
X127906000Y-73260000D01*
X145906000Y-73260000D01*
X145906000Y-67260000D01*
X127906000Y-67260000D01*
X116161151Y-67260000D01*
X116086653Y-67109790D01*
X115974159Y-66969841D01*
X115834210Y-66857347D01*
X115834209Y-66857346D01*
X115673350Y-66777567D01*
X115499102Y-66734234D01*
X115499103Y-66734234D01*
X115474910Y-66732593D01*
X115458784Y-66731500D01*
X114665216Y-66731500D01*
X114649089Y-66732593D01*
X114624897Y-66734234D01*
X114450649Y-66777567D01*
X114289790Y-66857346D01*
X114149841Y-66969840D01*
X114149840Y-66969841D01*
X114037346Y-67109790D01*
X113957567Y-67270649D01*
X113914234Y-67444897D01*
X113911500Y-67485218D01*
X113911500Y-68278781D01*
X103889297Y-68278781D01*
X103886000Y-66548000D01*
X103886000Y-60966332D01*
X103905685Y-60899293D01*
X103958489Y-60853538D01*
X104027647Y-60843594D01*
X104053568Y-60850238D01*
X104157456Y-60889228D01*
X104186976Y-60900307D01*
X104408450Y-60940500D01*
X104408453Y-60940500D01*
X104577148Y-60940500D01*
X104577155Y-60940500D01*
X104745188Y-60925377D01*
X104745192Y-60925376D01*
X104962160Y-60865496D01*
X104962162Y-60865495D01*
X104962170Y-60865493D01*
X105164973Y-60767829D01*
X105347078Y-60635522D01*
X105502632Y-60472825D01*
X105626635Y-60284968D01*
X105715103Y-60077988D01*
X105765191Y-59858537D01*
X105775290Y-59633670D01*
X105745075Y-59410613D01*
X105675517Y-59196536D01*
X105568852Y-58998319D01*
X105451573Y-58851256D01*
X105433677Y-58828815D01*
X105407268Y-58764128D01*
X105420025Y-58695433D01*
X105467895Y-58644539D01*
X105527110Y-58627553D01*
X117345866Y-58293060D01*
X117350116Y-58293014D01*
X152752878Y-58537171D01*
G37*
G04 #@! TD.AperFunction*
M02*
