G04 #@! TF.GenerationSoftware,KiCad,Pcbnew,7.0.10*
G04 #@! TF.CreationDate,2024-03-13T20:42:49-05:00*
G04 #@! TF.ProjectId,445_Left_Forearm,3434355f-4c65-4667-945f-466f72656172,rev?*
G04 #@! TF.SameCoordinates,Original*
G04 #@! TF.FileFunction,Legend,Top*
G04 #@! TF.FilePolarity,Positive*
%FSLAX46Y46*%
G04 Gerber Fmt 4.6, Leading zero omitted, Abs format (unit mm)*
G04 Created by KiCad (PCBNEW 7.0.10) date 2024-03-13 20:42:49*
%MOMM*%
%LPD*%
G01*
G04 APERTURE LIST*
G04 Aperture macros list*
%AMRoundRect*
0 Rectangle with rounded corners*
0 $1 Rounding radius*
0 $2 $3 $4 $5 $6 $7 $8 $9 X,Y pos of 4 corners*
0 Add a 4 corners polygon primitive as box body*
4,1,4,$2,$3,$4,$5,$6,$7,$8,$9,$2,$3,0*
0 Add four circle primitives for the rounded corners*
1,1,$1+$1,$2,$3*
1,1,$1+$1,$4,$5*
1,1,$1+$1,$6,$7*
1,1,$1+$1,$8,$9*
0 Add four rect primitives between the rounded corners*
20,1,$1+$1,$2,$3,$4,$5,0*
20,1,$1+$1,$4,$5,$6,$7,0*
20,1,$1+$1,$6,$7,$8,$9,0*
20,1,$1+$1,$8,$9,$2,$3,0*%
G04 Aperture macros list end*
%ADD10C,0.127000*%
%ADD11C,0.200000*%
%ADD12C,0.100000*%
%ADD13RoundRect,0.102000X0.525000X0.690000X-0.525000X0.690000X-0.525000X-0.690000X0.525000X-0.690000X0*%
%ADD14RoundRect,0.102000X-0.795000X-0.795000X0.795000X-0.795000X0.795000X0.795000X-0.795000X0.795000X0*%
%ADD15C,1.794000*%
%ADD16C,2.000000*%
%ADD17RoundRect,0.102000X-0.525000X-0.690000X0.525000X-0.690000X0.525000X0.690000X-0.525000X0.690000X0*%
%ADD18RoundRect,0.102000X-0.300000X-0.175000X0.300000X-0.175000X0.300000X0.175000X-0.300000X0.175000X0*%
%ADD19RoundRect,0.102000X0.175000X-0.300000X0.175000X0.300000X-0.175000X0.300000X-0.175000X-0.300000X0*%
G04 APERTURE END LIST*
D10*
X149022500Y-95113000D02*
X148919500Y-95113000D01*
X149022500Y-93863000D02*
X148919500Y-93863000D01*
X139954000Y-86146000D02*
X139954000Y-80986000D01*
X157734000Y-80986000D02*
X139954000Y-80986000D01*
X157734000Y-80986000D02*
X157734000Y-86146000D01*
X157734000Y-86146000D02*
X139954000Y-86146000D01*
D11*
X139404000Y-83566000D02*
G75*
G03*
X139204000Y-83566000I-100000J0D01*
G01*
X139204000Y-83566000D02*
G75*
G03*
X139404000Y-83566000I100000J0D01*
G01*
D10*
X153364500Y-90180000D02*
X153467500Y-90180000D01*
X153364500Y-91430000D02*
X153467500Y-91430000D01*
X146913000Y-91470000D02*
X147313000Y-91470000D01*
X147313000Y-88870000D02*
X146913000Y-88870000D01*
X150013000Y-88870000D02*
X149613000Y-88870000D01*
X150013000Y-91470000D02*
X149613000Y-91470000D01*
D12*
X146413000Y-89170000D02*
G75*
G03*
X146313000Y-89170000I-50000J0D01*
G01*
X146313000Y-89170000D02*
G75*
G03*
X146413000Y-89170000I50000J0D01*
G01*
%LPC*%
D13*
X149861000Y-94488000D03*
X148081000Y-94488000D03*
D14*
X141224000Y-83566000D03*
D15*
X143764000Y-83566000D03*
X146304000Y-83566000D03*
X148844000Y-83566000D03*
X151384000Y-83566000D03*
X153924000Y-83566000D03*
X156464000Y-83566000D03*
D16*
X137795000Y-75438000D03*
X157607000Y-75438000D03*
D17*
X152526000Y-90805000D03*
X154306000Y-90805000D03*
D16*
X157607000Y-99314000D03*
D18*
X147303000Y-89420000D03*
X147303000Y-89920000D03*
X147303000Y-90420000D03*
X147303000Y-90920000D03*
D19*
X147963000Y-91080000D03*
X148463000Y-91080000D03*
X148963000Y-91080000D03*
D18*
X149623000Y-90920000D03*
X149623000Y-90420000D03*
X149623000Y-89920000D03*
X149623000Y-89420000D03*
D19*
X148963000Y-89260000D03*
X148463000Y-89260000D03*
X147963000Y-89260000D03*
D16*
X137795000Y-99314000D03*
%LPD*%
M02*
