G04 #@! TF.GenerationSoftware,KiCad,Pcbnew,7.0.10*
G04 #@! TF.CreationDate,2024-03-13T20:42:49-05:00*
G04 #@! TF.ProjectId,445_Left_Forearm,3434355f-4c65-4667-945f-466f72656172,rev?*
G04 #@! TF.SameCoordinates,Original*
G04 #@! TF.FileFunction,Copper,L2,Bot*
G04 #@! TF.FilePolarity,Positive*
%FSLAX46Y46*%
G04 Gerber Fmt 4.6, Leading zero omitted, Abs format (unit mm)*
G04 Created by KiCad (PCBNEW 7.0.10) date 2024-03-13 20:42:49*
%MOMM*%
%LPD*%
G01*
G04 APERTURE LIST*
G04 #@! TA.AperFunction,ComponentPad*
%ADD10R,1.590000X1.590000*%
G04 #@! TD*
G04 #@! TA.AperFunction,ComponentPad*
%ADD11C,1.590000*%
G04 #@! TD*
G04 #@! TA.AperFunction,ViaPad*
%ADD12C,0.800000*%
G04 #@! TD*
G04 #@! TA.AperFunction,Conductor*
%ADD13C,0.250000*%
G04 #@! TD*
G04 APERTURE END LIST*
D10*
X141224000Y-83566000D03*
D11*
X143764000Y-83566000D03*
X146304000Y-83566000D03*
X148844000Y-83566000D03*
X151384000Y-83566000D03*
X153924000Y-83566000D03*
X156464000Y-83566000D03*
D12*
X146304000Y-90932000D03*
D13*
X146304000Y-83566000D02*
X146304000Y-90932000D01*
G04 #@! TA.AperFunction,Conductor*
G36*
X158311402Y-77363036D02*
G01*
X158357478Y-77415560D01*
X158369000Y-77467758D01*
X158369000Y-98094044D01*
X158349315Y-98161083D01*
X158296511Y-98206838D01*
X158227353Y-98216782D01*
X158181401Y-98200492D01*
X158151767Y-98182787D01*
X158151764Y-98182785D01*
X158033775Y-98138503D01*
X157941023Y-98103692D01*
X157719550Y-98063500D01*
X157719547Y-98063500D01*
X157550845Y-98063500D01*
X157512399Y-98066960D01*
X157382813Y-98078622D01*
X157382807Y-98078623D01*
X157165839Y-98138503D01*
X157165826Y-98138508D01*
X156963033Y-98236167D01*
X156963025Y-98236171D01*
X156780927Y-98368473D01*
X156780925Y-98368474D01*
X156625366Y-98531176D01*
X156501363Y-98719033D01*
X156412899Y-98926004D01*
X156412895Y-98926017D01*
X156362810Y-99145457D01*
X156362808Y-99145468D01*
X156355235Y-99314105D01*
X156352710Y-99370330D01*
X156382925Y-99593387D01*
X156382926Y-99593390D01*
X156452483Y-99807465D01*
X156559146Y-100005678D01*
X156559148Y-100005681D01*
X156699489Y-100181663D01*
X156699491Y-100181664D01*
X156699492Y-100181666D01*
X156765826Y-100239620D01*
X156803359Y-100298551D01*
X156803074Y-100368420D01*
X156765059Y-100427044D01*
X156701386Y-100455809D01*
X156684240Y-100457000D01*
X138722382Y-100457000D01*
X138655343Y-100437315D01*
X138609588Y-100384511D01*
X138599644Y-100315353D01*
X138628669Y-100251797D01*
X138632756Y-100247308D01*
X138695516Y-100181666D01*
X138776632Y-100096825D01*
X138900635Y-99908968D01*
X138989103Y-99701988D01*
X139039191Y-99482537D01*
X139049290Y-99257670D01*
X139019075Y-99034613D01*
X138949517Y-98820536D01*
X138842852Y-98622319D01*
X138702508Y-98446334D01*
X138532996Y-98298235D01*
X138339764Y-98182785D01*
X138221775Y-98138503D01*
X138129023Y-98103692D01*
X137907550Y-98063500D01*
X137907547Y-98063500D01*
X137738845Y-98063500D01*
X137700399Y-98066960D01*
X137570813Y-98078622D01*
X137570807Y-98078623D01*
X137353839Y-98138503D01*
X137353830Y-98138507D01*
X137250269Y-98188378D01*
X137181328Y-98199729D01*
X137117193Y-98172006D01*
X137078229Y-98114010D01*
X137072487Y-98074609D01*
X137298991Y-84408870D01*
X139928500Y-84408870D01*
X139928501Y-84408876D01*
X139934908Y-84468483D01*
X139985202Y-84603328D01*
X139985206Y-84603335D01*
X140071452Y-84718544D01*
X140071455Y-84718547D01*
X140186664Y-84804793D01*
X140186671Y-84804797D01*
X140321517Y-84855091D01*
X140321516Y-84855091D01*
X140328444Y-84855835D01*
X140381127Y-84861500D01*
X142066872Y-84861499D01*
X142126483Y-84855091D01*
X142261331Y-84804796D01*
X142376546Y-84718546D01*
X142462796Y-84603331D01*
X142513091Y-84468483D01*
X142519500Y-84408873D01*
X142519499Y-84408441D01*
X142519527Y-84408347D01*
X142519678Y-84405547D01*
X142520338Y-84405582D01*
X142539166Y-84341400D01*
X142591958Y-84295631D01*
X142654308Y-84284884D01*
X142688564Y-84287881D01*
X143254982Y-83721463D01*
X143259906Y-83745155D01*
X143326935Y-83874514D01*
X143426379Y-83980992D01*
X143550862Y-84056692D01*
X143610227Y-84073325D01*
X143042116Y-84641435D01*
X143042116Y-84641436D01*
X143114025Y-84691786D01*
X143114027Y-84691787D01*
X143319390Y-84787549D01*
X143319399Y-84787553D01*
X143538261Y-84846196D01*
X143538272Y-84846198D01*
X143763998Y-84865947D01*
X143764002Y-84865947D01*
X143989727Y-84846198D01*
X143989738Y-84846196D01*
X144208600Y-84787553D01*
X144208609Y-84787549D01*
X144413971Y-84691788D01*
X144485882Y-84641435D01*
X143920366Y-84075918D01*
X144041969Y-84023100D01*
X144154985Y-83931154D01*
X144239003Y-83812127D01*
X144271694Y-83720141D01*
X144839435Y-84287882D01*
X144889786Y-84215973D01*
X144921341Y-84148304D01*
X144967513Y-84095865D01*
X145034707Y-84076712D01*
X145101588Y-84096927D01*
X145146106Y-84148304D01*
X145177776Y-84216221D01*
X145177780Y-84216229D01*
X145265426Y-84341400D01*
X145307798Y-84401913D01*
X145468087Y-84562202D01*
X145625624Y-84672510D01*
X145669248Y-84727085D01*
X145678500Y-84774084D01*
X145678500Y-90233312D01*
X145658815Y-90300351D01*
X145646650Y-90316284D01*
X145571466Y-90399784D01*
X145476821Y-90563715D01*
X145476818Y-90563722D01*
X145418327Y-90743740D01*
X145418326Y-90743744D01*
X145398540Y-90932000D01*
X145418326Y-91120256D01*
X145418327Y-91120259D01*
X145476818Y-91300277D01*
X145476821Y-91300284D01*
X145571467Y-91464216D01*
X145698129Y-91604888D01*
X145851265Y-91716148D01*
X145851270Y-91716151D01*
X146024192Y-91793142D01*
X146024197Y-91793144D01*
X146209354Y-91832500D01*
X146209355Y-91832500D01*
X146398644Y-91832500D01*
X146398646Y-91832500D01*
X146583803Y-91793144D01*
X146756730Y-91716151D01*
X146909871Y-91604888D01*
X147036533Y-91464216D01*
X147131179Y-91300284D01*
X147189674Y-91120256D01*
X147209460Y-90932000D01*
X147189674Y-90743744D01*
X147131179Y-90563716D01*
X147036533Y-90399784D01*
X146961350Y-90316284D01*
X146931120Y-90253292D01*
X146929500Y-90233312D01*
X146929500Y-84774084D01*
X146949185Y-84707045D01*
X146982374Y-84672511D01*
X147139913Y-84562202D01*
X147300202Y-84401913D01*
X147430222Y-84216225D01*
X147461618Y-84148896D01*
X147507790Y-84096456D01*
X147574983Y-84077304D01*
X147641865Y-84097520D01*
X147686382Y-84148896D01*
X147717776Y-84216221D01*
X147717780Y-84216229D01*
X147847794Y-84401908D01*
X147847799Y-84401914D01*
X148008085Y-84562200D01*
X148008091Y-84562205D01*
X148193770Y-84692219D01*
X148193772Y-84692220D01*
X148193775Y-84692222D01*
X148317375Y-84749857D01*
X148399213Y-84788019D01*
X148399215Y-84788019D01*
X148399220Y-84788022D01*
X148618179Y-84846692D01*
X148798835Y-84862497D01*
X148843999Y-84866449D01*
X148844000Y-84866449D01*
X148844001Y-84866449D01*
X148881636Y-84863156D01*
X149069821Y-84846692D01*
X149288780Y-84788022D01*
X149494225Y-84692222D01*
X149679913Y-84562202D01*
X149840202Y-84401913D01*
X149970222Y-84216225D01*
X150001618Y-84148896D01*
X150047790Y-84096456D01*
X150114983Y-84077304D01*
X150181865Y-84097520D01*
X150226382Y-84148896D01*
X150257776Y-84216221D01*
X150257780Y-84216229D01*
X150387794Y-84401908D01*
X150387799Y-84401914D01*
X150548085Y-84562200D01*
X150548091Y-84562205D01*
X150733770Y-84692219D01*
X150733772Y-84692220D01*
X150733775Y-84692222D01*
X150857375Y-84749857D01*
X150939213Y-84788019D01*
X150939215Y-84788019D01*
X150939220Y-84788022D01*
X151158179Y-84846692D01*
X151338835Y-84862497D01*
X151383999Y-84866449D01*
X151384000Y-84866449D01*
X151384001Y-84866449D01*
X151421636Y-84863156D01*
X151609821Y-84846692D01*
X151828780Y-84788022D01*
X152034225Y-84692222D01*
X152219913Y-84562202D01*
X152380202Y-84401913D01*
X152510222Y-84216225D01*
X152541618Y-84148896D01*
X152587790Y-84096456D01*
X152654983Y-84077304D01*
X152721865Y-84097520D01*
X152766382Y-84148896D01*
X152797776Y-84216221D01*
X152797780Y-84216229D01*
X152927794Y-84401908D01*
X152927799Y-84401914D01*
X153088085Y-84562200D01*
X153088091Y-84562205D01*
X153273770Y-84692219D01*
X153273772Y-84692220D01*
X153273775Y-84692222D01*
X153397375Y-84749857D01*
X153479213Y-84788019D01*
X153479215Y-84788019D01*
X153479220Y-84788022D01*
X153698179Y-84846692D01*
X153878835Y-84862497D01*
X153923999Y-84866449D01*
X153924000Y-84866449D01*
X153924001Y-84866449D01*
X153961636Y-84863156D01*
X154149821Y-84846692D01*
X154368780Y-84788022D01*
X154574225Y-84692222D01*
X154759913Y-84562202D01*
X154920202Y-84401913D01*
X155050222Y-84216225D01*
X155081618Y-84148896D01*
X155127790Y-84096456D01*
X155194983Y-84077304D01*
X155261865Y-84097520D01*
X155306382Y-84148896D01*
X155337776Y-84216221D01*
X155337780Y-84216229D01*
X155467794Y-84401908D01*
X155467799Y-84401914D01*
X155628085Y-84562200D01*
X155628091Y-84562205D01*
X155813770Y-84692219D01*
X155813772Y-84692220D01*
X155813775Y-84692222D01*
X155937375Y-84749857D01*
X156019213Y-84788019D01*
X156019215Y-84788019D01*
X156019220Y-84788022D01*
X156238179Y-84846692D01*
X156418835Y-84862497D01*
X156463999Y-84866449D01*
X156464000Y-84866449D01*
X156464001Y-84866449D01*
X156501636Y-84863156D01*
X156689821Y-84846692D01*
X156908780Y-84788022D01*
X157114225Y-84692222D01*
X157299913Y-84562202D01*
X157460202Y-84401913D01*
X157590222Y-84216225D01*
X157686022Y-84010780D01*
X157744692Y-83791821D01*
X157764449Y-83566000D01*
X157744692Y-83340179D01*
X157686022Y-83121220D01*
X157590222Y-82915776D01*
X157460202Y-82730087D01*
X157299913Y-82569798D01*
X157299909Y-82569795D01*
X157299908Y-82569794D01*
X157114229Y-82439780D01*
X157114221Y-82439776D01*
X156908786Y-82343980D01*
X156908772Y-82343975D01*
X156689826Y-82285309D01*
X156689816Y-82285307D01*
X156464001Y-82265551D01*
X156463999Y-82265551D01*
X156238183Y-82285307D01*
X156238173Y-82285309D01*
X156019227Y-82343975D01*
X156019220Y-82343977D01*
X156019220Y-82343978D01*
X156018208Y-82344450D01*
X155813777Y-82439777D01*
X155813775Y-82439778D01*
X155628084Y-82569799D01*
X155467799Y-82730084D01*
X155337778Y-82915775D01*
X155337777Y-82915777D01*
X155306382Y-82983105D01*
X155260209Y-83035544D01*
X155193016Y-83054696D01*
X155126135Y-83034480D01*
X155081618Y-82983105D01*
X155050222Y-82915777D01*
X155050221Y-82915775D01*
X155050220Y-82915774D01*
X154920202Y-82730087D01*
X154759913Y-82569798D01*
X154759909Y-82569795D01*
X154759908Y-82569794D01*
X154574229Y-82439780D01*
X154574221Y-82439776D01*
X154368786Y-82343980D01*
X154368772Y-82343975D01*
X154149826Y-82285309D01*
X154149816Y-82285307D01*
X153924001Y-82265551D01*
X153923999Y-82265551D01*
X153698183Y-82285307D01*
X153698173Y-82285309D01*
X153479227Y-82343975D01*
X153479220Y-82343977D01*
X153479220Y-82343978D01*
X153478208Y-82344450D01*
X153273777Y-82439777D01*
X153273775Y-82439778D01*
X153088084Y-82569799D01*
X152927799Y-82730084D01*
X152797778Y-82915775D01*
X152797777Y-82915777D01*
X152766382Y-82983105D01*
X152720209Y-83035544D01*
X152653016Y-83054696D01*
X152586135Y-83034480D01*
X152541618Y-82983105D01*
X152510222Y-82915777D01*
X152510221Y-82915775D01*
X152510220Y-82915774D01*
X152380202Y-82730087D01*
X152219913Y-82569798D01*
X152219909Y-82569795D01*
X152219908Y-82569794D01*
X152034229Y-82439780D01*
X152034221Y-82439776D01*
X151828786Y-82343980D01*
X151828772Y-82343975D01*
X151609826Y-82285309D01*
X151609816Y-82285307D01*
X151384001Y-82265551D01*
X151383999Y-82265551D01*
X151158183Y-82285307D01*
X151158173Y-82285309D01*
X150939227Y-82343975D01*
X150939220Y-82343977D01*
X150939220Y-82343978D01*
X150938208Y-82344450D01*
X150733777Y-82439777D01*
X150733775Y-82439778D01*
X150548084Y-82569799D01*
X150387799Y-82730084D01*
X150257778Y-82915775D01*
X150257777Y-82915777D01*
X150226382Y-82983105D01*
X150180209Y-83035544D01*
X150113016Y-83054696D01*
X150046135Y-83034480D01*
X150001618Y-82983105D01*
X149970222Y-82915777D01*
X149970221Y-82915775D01*
X149970220Y-82915774D01*
X149840202Y-82730087D01*
X149679913Y-82569798D01*
X149679909Y-82569795D01*
X149679908Y-82569794D01*
X149494229Y-82439780D01*
X149494221Y-82439776D01*
X149288786Y-82343980D01*
X149288772Y-82343975D01*
X149069826Y-82285309D01*
X149069816Y-82285307D01*
X148844001Y-82265551D01*
X148843999Y-82265551D01*
X148618183Y-82285307D01*
X148618173Y-82285309D01*
X148399227Y-82343975D01*
X148399220Y-82343977D01*
X148399220Y-82343978D01*
X148398208Y-82344450D01*
X148193777Y-82439777D01*
X148193775Y-82439778D01*
X148008084Y-82569799D01*
X147847799Y-82730084D01*
X147717778Y-82915775D01*
X147717777Y-82915777D01*
X147686382Y-82983105D01*
X147640209Y-83035544D01*
X147573016Y-83054696D01*
X147506135Y-83034480D01*
X147461618Y-82983105D01*
X147430222Y-82915777D01*
X147430221Y-82915775D01*
X147430220Y-82915774D01*
X147300202Y-82730087D01*
X147139913Y-82569798D01*
X147139909Y-82569795D01*
X147139908Y-82569794D01*
X146954229Y-82439780D01*
X146954221Y-82439776D01*
X146748786Y-82343980D01*
X146748772Y-82343975D01*
X146529826Y-82285309D01*
X146529816Y-82285307D01*
X146304001Y-82265551D01*
X146303999Y-82265551D01*
X146078183Y-82285307D01*
X146078173Y-82285309D01*
X145859227Y-82343975D01*
X145859220Y-82343977D01*
X145859220Y-82343978D01*
X145858208Y-82344450D01*
X145653777Y-82439777D01*
X145653775Y-82439778D01*
X145468084Y-82569799D01*
X145307799Y-82730084D01*
X145177779Y-82915774D01*
X145146106Y-82983697D01*
X145099933Y-83036136D01*
X145032739Y-83055287D01*
X144965858Y-83035071D01*
X144921342Y-82983696D01*
X144889787Y-82916027D01*
X144889785Y-82916023D01*
X144839435Y-82844117D01*
X144273016Y-83410535D01*
X144268094Y-83386845D01*
X144201065Y-83257486D01*
X144101621Y-83151008D01*
X143977138Y-83075308D01*
X143917772Y-83058674D01*
X144485882Y-82490564D01*
X144485881Y-82490563D01*
X144413974Y-82440213D01*
X144413972Y-82440212D01*
X144208609Y-82344450D01*
X144208600Y-82344446D01*
X143989738Y-82285803D01*
X143989727Y-82285801D01*
X143764002Y-82266053D01*
X143763998Y-82266053D01*
X143538272Y-82285801D01*
X143538261Y-82285803D01*
X143319399Y-82344446D01*
X143319390Y-82344450D01*
X143114027Y-82440212D01*
X143114025Y-82440213D01*
X143042117Y-82490563D01*
X143042117Y-82490564D01*
X143607634Y-83056080D01*
X143486031Y-83108900D01*
X143373015Y-83200846D01*
X143288997Y-83319873D01*
X143256305Y-83411858D01*
X142688563Y-82844116D01*
X142654305Y-82847114D01*
X142585805Y-82833347D01*
X142535623Y-82784731D01*
X142520242Y-82726405D01*
X142519900Y-82726423D01*
X142519854Y-82726429D01*
X142519853Y-82726426D01*
X142519676Y-82726436D01*
X142519529Y-82723702D01*
X142519499Y-82723586D01*
X142519499Y-82723129D01*
X142519498Y-82723123D01*
X142519497Y-82723116D01*
X142513091Y-82663517D01*
X142478136Y-82569799D01*
X142462797Y-82528671D01*
X142462793Y-82528664D01*
X142376547Y-82413455D01*
X142376544Y-82413452D01*
X142261335Y-82327206D01*
X142261328Y-82327202D01*
X142126482Y-82276908D01*
X142126483Y-82276908D01*
X142066883Y-82270501D01*
X142066881Y-82270500D01*
X142066873Y-82270500D01*
X142066864Y-82270500D01*
X140381129Y-82270500D01*
X140381123Y-82270501D01*
X140321516Y-82276908D01*
X140186671Y-82327202D01*
X140186664Y-82327206D01*
X140071455Y-82413452D01*
X140071452Y-82413455D01*
X139985206Y-82528664D01*
X139985202Y-82528671D01*
X139934908Y-82663517D01*
X139928501Y-82723116D01*
X139928501Y-82723123D01*
X139928500Y-82723135D01*
X139928500Y-84408870D01*
X137298991Y-84408870D01*
X137411979Y-77591945D01*
X137432772Y-77525241D01*
X137486327Y-77480367D01*
X137535962Y-77470000D01*
X137540950Y-77470000D01*
X137541000Y-77470000D01*
X158244246Y-77343760D01*
X158311402Y-77363036D01*
G37*
G04 #@! TD.AperFunction*
M02*
